<svg width="37" height="32" viewBox="0 0 37 32" fill="none" xmlns="http://www.w3.org/2000/svg">
<path d="M9.46062 11.7056H7.33347V17.6586H9.46062V11.7056Z" fill="#C4CED9"/>
<path d="M29.3786 24.8566H29.4382V14.6769C29.4382 6.57539 22.8506 0 14.711 0C6.58766 0 0 6.57539 0 14.6769V24.862H0.054264C0.341863 27.3785 2.57754 29.3592 5.3016 29.3592H24.1475C26.6219 29.3592 28.684 27.714 29.2429 25.5222C29.3026 25.3058 29.3568 25.0839 29.3786 24.8566ZM14.711 24.337C9.38225 24.337 5.04113 20.0076 5.04113 14.6769C5.04113 9.35166 9.38225 5.0276 14.711 5.0276C20.0614 5.0276 24.3971 9.35166 24.3971 14.6769C24.3971 20.0076 20.0614 24.337 14.711 24.337Z" fill="#C4CED9"/>
<path d="M13.574 11.7056H11.4468V15.5426H13.574V11.7056Z" fill="#C4CED9"/>
<path d="M17.9998 11.7056H15.8781V17.6586H17.9998V11.7056Z" fill="#C4CED9"/>
<path d="M22.1096 11.7056H19.977V15.5426H22.1096V11.7056Z" fill="#C4CED9"/>
<path d="M30.8356 25.522C30.8356 25.522 30.1519 28.4282 28.3829 29.359H34.8783V32H37V25.522H30.8356Z" fill="#C4CED9"/>
</svg>
