<svg width="25" height="32" viewBox="0 0 25 32" fill="none" xmlns="http://www.w3.org/2000/svg">
<path fill-rule="evenodd" clip-rule="evenodd" d="M12.516 1.92191C18.3396 1.92191 23.0695 6.63035 23.0695 12.3961C23.0695 14.5422 22.4259 16.5927 21.1711 18.3864L21.1689 18.3886C21.1375 18.4199 21.1064 18.4508 21.1064 18.4822L12.516 29.886L3.95772 18.5147L3.92567 18.4822C3.92567 18.4624 3.91334 18.455 3.89635 18.4446C3.88574 18.4382 3.87332 18.4307 3.86095 18.4183C2.60614 16.6246 1.93047 14.5422 1.93047 12.3961C1.96265 6.59832 6.72461 1.92191 12.516 1.92191ZM6.43491 11.9801C6.43491 8.74484 9.16987 6.11797 12.516 6.11797C15.8622 6.11797 18.5971 8.77674 18.5971 12.012C18.5971 15.2472 15.8622 17.8741 12.516 17.8741C9.16987 17.8741 6.43491 15.2153 6.43491 11.9801Z" fill="#C4CED9"/>
<path fill-rule="evenodd" clip-rule="evenodd" d="M0 12.3642C0.0321745 5.5414 5.66285 0 12.516 0C19.4014 0 25 5.57343 25 12.3642C25 14.8947 24.2277 17.361 22.7798 19.4431C22.7157 19.5708 22.6513 19.6349 22.5554 19.7304L22.5542 19.7315L13.771 31.3913L13.7389 31.4232C13.4172 31.7755 12.9665 32 12.516 32C12.0656 32 11.6149 31.8076 11.2931 31.4232L11.2611 31.3913L2.44514 19.7315C2.38165 19.6683 2.34997 19.6052 2.31823 19.542L2.31694 19.5395C0.804741 17.4254 0.0321745 14.9267 0 12.3642ZM23.0695 12.3961C23.0695 6.63035 18.3396 1.92191 12.516 1.92191C6.72461 1.92191 1.96265 6.59832 1.93047 12.3961C1.93047 14.5422 2.60614 16.6246 3.86095 18.4183C3.87332 18.4307 3.88574 18.4382 3.89635 18.4446C3.91334 18.455 3.92567 18.4624 3.92567 18.4822L3.95772 18.5147L12.516 29.886L21.1064 18.4822C21.1064 18.4508 21.1375 18.4199 21.1689 18.3886L21.1711 18.3864C22.4259 16.5927 23.0695 14.5422 23.0695 12.3961Z" fill="#C4CED9"/>
</svg>
