<svg width="32" height="32" viewBox="0 0 32 32" fill="none" xmlns="http://www.w3.org/2000/svg">
<path d="M30.0308 8C28.7251 8 27.4729 8.52678 26.5496 9.46447C25.6264 10.4021 25.1077 11.6739 25.1077 13V16.75C25.1077 17.2141 24.9262 17.6592 24.603 17.9874C24.2799 18.3156 23.8416 18.5 23.3846 18.5C22.9276 18.5 22.4894 18.3156 22.1662 17.9874C21.8431 17.6592 21.6615 17.2141 21.6615 16.75V5.75C21.6615 4.22501 21.0651 2.76247 20.0033 1.68414C18.9416 0.605802 17.5015 0 16 0C14.4985 0 13.0584 0.605802 11.9967 1.68414C10.9349 2.76247 10.3385 4.22501 10.3385 5.75V26.25C10.3385 26.7141 10.1569 27.1593 9.83378 27.4874C9.51064 27.8156 9.07237 28 8.61539 28C8.1584 28 7.72013 27.8156 7.39699 27.4874C7.07385 27.1593 6.89231 26.7141 6.89231 26.25V20C6.89231 18.6739 6.37363 17.4021 5.45037 16.4645C4.52712 15.5268 3.27491 15 1.96923 15C1.44696 15 0.946077 15.2107 0.576775 15.5858C0.207472 15.9609 0 16.4696 0 17C0 17.5304 0.207472 18.0391 0.576775 18.4142C0.946077 18.7893 1.44696 19 1.96923 19C2.23037 19 2.48081 19.1054 2.66546 19.2929C2.85011 19.4804 2.95385 19.7348 2.95385 20V26.25C2.95385 27.775 3.55033 29.2375 4.61207 30.3159C5.67382 31.3942 7.11385 32 8.61539 32C10.1169 32 11.557 31.3942 12.6187 30.3159C13.6804 29.2375 14.2769 27.775 14.2769 26.25V5.75C14.2769 5.28587 14.4585 4.84075 14.7816 4.51256C15.1047 4.18437 15.543 4 16 4C16.457 4 16.8953 4.18437 17.2184 4.51256C17.5415 4.84075 17.7231 5.28587 17.7231 5.75V16.75C17.7231 18.275 18.3196 19.7375 19.3813 20.8159C20.443 21.8942 21.8831 22.5 23.3846 22.5C24.8861 22.5 26.3262 21.8942 27.3879 20.8159C28.4497 19.7375 29.0462 18.275 29.0462 16.75V13C29.0462 12.7348 29.1499 12.4804 29.3345 12.2929C29.5192 12.1054 29.7696 12 30.0308 12C30.553 12 31.0539 11.7893 31.4232 11.4142C31.7925 11.0391 32 10.5304 32 10C32 9.46957 31.7925 8.96086 31.4232 8.58579C31.0539 8.21071 30.553 8 30.0308 8Z" fill="#C4CED9"/>
</svg>
