<svg width="1176" height="651" viewBox="0 0 1176 651" fill="none" xmlns="http://www.w3.org/2000/svg">
<path d="M535.59 142.763L436.131 142.763L436.131 112.315L535.59 112.315L535.59 142.763Z" stroke="white"/>
<path d="M458.94 132.801V122.636H462.752C463.533 122.636 464.188 122.781 464.717 123.072C465.25 123.364 465.652 123.764 465.923 124.273C466.198 124.78 466.335 125.355 466.335 126.001C466.335 126.653 466.198 127.232 465.923 127.738C465.649 128.244 465.243 128.643 464.707 128.934C464.171 129.222 463.511 129.366 462.727 129.366H460.201V127.852H462.479C462.935 127.852 463.309 127.773 463.601 127.614C463.892 127.455 464.107 127.237 464.246 126.959C464.388 126.681 464.459 126.361 464.459 126.001C464.459 125.64 464.388 125.322 464.246 125.048C464.107 124.773 463.89 124.56 463.596 124.407C463.304 124.252 462.929 124.174 462.469 124.174H460.781V132.801H458.94Z" fill="white"/>
<path d="M467.855 132.801V125.177H469.652V132.801H467.855ZM468.759 124.095C468.474 124.095 468.229 124 468.024 123.812C467.819 123.62 467.716 123.39 467.716 123.122C467.716 122.851 467.819 122.621 468.024 122.432C468.229 122.24 468.474 122.144 468.759 122.144C469.047 122.144 469.292 122.24 469.493 122.432C469.699 122.621 469.801 122.851 469.801 123.122C469.801 123.39 469.699 123.62 469.493 123.812C469.292 124 469.047 124.095 468.759 124.095Z" fill="white"/>
<path d="M475.307 125.177V126.567H470.924V125.177H475.307ZM472.006 123.35H473.803V130.507C473.803 130.749 473.839 130.934 473.912 131.063C473.988 131.189 474.087 131.275 474.21 131.321C474.332 131.368 474.468 131.391 474.617 131.391C474.729 131.391 474.832 131.383 474.925 131.366C475.021 131.35 475.093 131.335 475.143 131.321L475.446 132.726C475.35 132.759 475.212 132.796 475.034 132.835C474.858 132.875 474.643 132.898 474.389 132.905C473.938 132.918 473.533 132.85 473.172 132.701C472.812 132.549 472.526 132.314 472.314 131.996C472.105 131.679 472.003 131.282 472.006 130.805V123.35Z" fill="white"/>
<path d="M480.356 132.801V122.636H482.197V131.257H486.674V132.801H480.356Z" fill="white"/>
<path d="M490.387 132.954C489.904 132.954 489.469 132.868 489.081 132.696C488.698 132.521 488.393 132.263 488.168 131.922C487.946 131.581 487.836 131.161 487.836 130.661C487.836 130.231 487.915 129.875 488.074 129.594C488.233 129.313 488.449 129.088 488.724 128.919C488.999 128.75 489.308 128.623 489.652 128.537C490 128.448 490.359 128.383 490.729 128.343C491.176 128.297 491.538 128.256 491.816 128.219C492.094 128.18 492.296 128.12 492.422 128.041C492.551 127.958 492.615 127.831 492.615 127.658V127.629C492.615 127.255 492.504 126.965 492.283 126.76C492.061 126.555 491.742 126.452 491.325 126.452C490.885 126.452 490.536 126.548 490.278 126.74C490.023 126.932 489.851 127.159 489.761 127.42L488.084 127.182C488.216 126.719 488.434 126.332 488.739 126.021C489.043 125.706 489.416 125.471 489.856 125.316C490.296 125.157 490.782 125.078 491.315 125.078C491.682 125.078 492.048 125.121 492.412 125.207C492.776 125.293 493.108 125.435 493.409 125.633C493.711 125.829 493.952 126.095 494.134 126.433C494.319 126.77 494.412 127.192 494.412 127.698V132.801H492.685V131.753H492.625C492.516 131.965 492.362 132.164 492.164 132.349C491.968 132.531 491.722 132.678 491.424 132.791C491.13 132.9 490.784 132.954 490.387 132.954ZM490.853 131.634C491.214 131.634 491.527 131.563 491.791 131.421C492.056 131.275 492.26 131.083 492.402 130.845C492.547 130.607 492.62 130.347 492.62 130.066V129.167C492.564 129.214 492.468 129.257 492.332 129.296C492.2 129.336 492.051 129.371 491.886 129.401C491.72 129.43 491.556 129.457 491.394 129.48C491.232 129.503 491.092 129.523 490.972 129.54C490.704 129.576 490.465 129.636 490.253 129.718C490.041 129.801 489.874 129.917 489.751 130.066C489.629 130.211 489.568 130.4 489.568 130.632C489.568 130.962 489.689 131.212 489.93 131.381C490.172 131.55 490.479 131.634 490.853 131.634Z" fill="white"/>
<path d="M498.015 128.334V132.801H496.219V125.177H497.936V126.472H498.025C498.201 126.045 498.48 125.706 498.864 125.455C499.251 125.203 499.73 125.078 500.299 125.078C500.825 125.078 501.283 125.19 501.674 125.415C502.067 125.64 502.372 125.966 502.587 126.393C502.805 126.82 502.913 127.338 502.909 127.946V132.801H501.113V128.224C501.113 127.715 500.98 127.316 500.716 127.028C500.454 126.74 500.092 126.596 499.629 126.596C499.314 126.596 499.035 126.666 498.79 126.805C498.548 126.94 498.358 127.137 498.219 127.395C498.083 127.654 498.015 127.966 498.015 128.334Z" fill="white"/>
<path d="M508.111 132.949C507.347 132.949 506.687 132.791 506.131 132.473C505.578 132.152 505.153 131.699 504.855 131.113C504.557 130.524 504.408 129.831 504.408 129.033C504.408 128.249 504.557 127.561 504.855 126.969C505.156 126.373 505.576 125.91 506.116 125.579C506.655 125.245 507.289 125.078 508.017 125.078C508.487 125.078 508.93 125.154 509.347 125.306C509.767 125.455 510.138 125.686 510.459 126.001C510.783 126.315 511.038 126.715 511.223 127.202C511.408 127.685 511.501 128.261 511.501 128.929V129.48H505.252V128.269H509.779C509.775 127.925 509.701 127.619 509.555 127.351C509.41 127.079 509.206 126.866 508.945 126.71C508.687 126.555 508.386 126.477 508.042 126.477C507.674 126.477 507.352 126.567 507.074 126.745C506.796 126.921 506.579 127.152 506.423 127.44C506.271 127.725 506.194 128.037 506.19 128.378V129.435C506.19 129.879 506.271 130.259 506.433 130.577C506.596 130.891 506.822 131.133 507.113 131.302C507.405 131.467 507.745 131.55 508.136 131.55C508.397 131.55 508.634 131.513 508.846 131.441C509.057 131.364 509.241 131.254 509.397 131.108C509.552 130.962 509.67 130.782 509.749 130.567L511.427 130.756C511.321 131.199 511.119 131.586 510.821 131.917C510.527 132.245 510.149 132.499 509.689 132.681C509.229 132.86 508.703 132.949 508.111 132.949Z" fill="white"/>
<path d="M486.297 111.815L485.423 111.815L485.423 96.0913L486.297 96.0913L486.297 111.815Z" fill="white"/>
<rect x="325.936" y="32.6951" width="76.7466" height="29.5745" transform="rotate(-180 325.936 32.6951)" stroke="white"/>
<path d="M266.707 13.6543H264.851C264.798 13.3498 264.701 13.0802 264.558 12.8452C264.416 12.607 264.239 12.4051 264.027 12.2397C263.815 12.0742 263.574 11.9502 263.303 11.8674C263.035 11.7814 262.745 11.7384 262.434 11.7384C261.881 11.7384 261.392 11.8774 260.965 12.1553C260.538 12.4299 260.204 12.8336 259.962 13.3664C259.721 13.8958 259.6 14.5427 259.6 15.3071C259.6 16.0847 259.721 16.7398 259.962 17.2726C260.207 17.802 260.541 18.2024 260.965 18.4737C261.392 18.7417 261.88 18.8757 262.429 18.8757C262.733 18.8757 263.018 18.836 263.283 18.7566C263.551 18.6739 263.791 18.5531 264.002 18.3943C264.217 18.2355 264.398 18.0402 264.543 17.8086C264.692 17.577 264.795 17.3123 264.851 17.0145L266.707 17.0244C266.638 17.5075 266.487 17.9608 266.256 18.3844C266.027 18.8079 265.728 19.1818 265.357 19.5061C264.987 19.8271 264.553 20.0785 264.057 20.2605C263.561 20.4392 263.01 20.5285 262.404 20.5285C261.511 20.5285 260.713 20.3217 260.012 19.9081C259.31 19.4945 258.758 18.8972 258.354 18.1163C257.95 17.3354 257.749 16.399 257.749 15.3071C257.749 14.2118 257.952 13.2754 258.359 12.4978C258.766 11.7169 259.32 11.1196 260.022 10.706C260.723 10.2924 261.517 10.0856 262.404 10.0856C262.97 10.0856 263.496 10.165 263.983 10.3238C264.469 10.4826 264.902 10.7159 265.283 11.0237C265.663 11.3281 265.976 11.702 266.221 12.1454C266.469 12.5855 266.631 13.0884 266.707 13.6543Z" fill="white"/>
<path d="M270.111 15.9225V20.3896H268.314V10.2245H270.071V14.0612H270.161C270.339 13.6311 270.616 13.2919 270.99 13.0438C271.367 12.7923 271.847 12.6665 272.429 12.6665C272.958 12.6665 273.42 12.7774 273.814 12.9991C274.208 13.2208 274.512 13.5451 274.727 13.9719C274.945 14.3988 275.055 14.9199 275.055 15.5354V20.3896H273.258V15.8133C273.258 15.3004 273.126 14.9017 272.861 14.6171C272.599 14.3293 272.232 14.1853 271.759 14.1853C271.441 14.1853 271.157 14.2548 270.905 14.3938C270.657 14.5295 270.462 14.7263 270.32 14.9844C270.181 15.2425 270.111 15.5552 270.111 15.9225Z" fill="white"/>
<path d="M280.261 20.5385C279.497 20.5385 278.837 20.3796 278.281 20.062C277.728 19.741 277.303 19.2877 277.005 18.702C276.707 18.113 276.559 17.4198 276.559 16.6224C276.559 15.8381 276.707 15.1499 277.005 14.5576C277.306 13.962 277.727 13.4987 278.266 13.1678C278.805 12.8336 279.439 12.6665 280.167 12.6665C280.637 12.6665 281.08 12.7426 281.497 12.8949C281.917 13.0438 282.288 13.2754 282.609 13.5897C282.933 13.9041 283.188 14.3045 283.373 14.7909C283.559 15.274 283.651 15.8497 283.651 16.5181V17.0691H277.402V15.858H281.929C281.926 15.5139 281.851 15.2078 281.706 14.9398C281.56 14.6684 281.356 14.455 281.095 14.2995C280.837 14.144 280.536 14.0662 280.192 14.0662C279.824 14.0662 279.502 14.1556 279.224 14.3342C278.946 14.5096 278.729 14.7412 278.574 15.0291C278.421 15.3137 278.344 15.6264 278.34 15.9672V17.0244C278.34 17.4678 278.421 17.8483 278.584 18.166C278.746 18.4803 278.972 18.7219 279.264 18.8906C279.555 19.0561 279.896 19.1388 280.286 19.1388C280.547 19.1388 280.784 19.1024 280.996 19.0296C281.208 18.9535 281.391 18.8426 281.547 18.6971C281.702 18.5515 281.82 18.3711 281.899 18.156L283.577 18.3447C283.471 18.7881 283.269 19.1752 282.971 19.5061C282.677 19.8337 282.3 20.0885 281.84 20.2705C281.38 20.4491 280.854 20.5385 280.261 20.5385Z" fill="white"/>
<path d="M288.487 23.4073C287.842 23.4073 287.287 23.3196 286.824 23.1443C286.361 22.9722 285.989 22.7406 285.707 22.4494C285.426 22.1582 285.231 21.8356 285.122 21.4815L286.74 21.0894C286.813 21.2383 286.918 21.3856 287.057 21.5312C287.196 21.6801 287.383 21.8025 287.618 21.8984C287.856 21.9977 288.156 22.0473 288.517 22.0473C289.026 22.0473 289.448 21.9233 289.782 21.6751C290.116 21.4302 290.284 21.0265 290.284 20.464V19.0197H290.194C290.102 19.205 289.966 19.3952 289.787 19.5905C289.612 19.7857 289.379 19.9495 289.087 20.0818C288.8 20.2142 288.437 20.2804 288 20.2804C287.415 20.2804 286.884 20.1431 286.407 19.8684C285.934 19.5905 285.557 19.1769 285.276 18.6276C284.998 18.075 284.859 17.3834 284.859 16.5529C284.859 15.7157 284.998 15.0093 285.276 14.4335C285.557 13.8544 285.936 13.416 286.412 13.1182C286.889 12.8171 287.42 12.6665 288.005 12.6665C288.452 12.6665 288.819 12.7426 289.107 12.8949C289.398 13.0438 289.63 13.2241 289.802 13.4359C289.974 13.6443 290.105 13.8412 290.194 14.0265H290.293V12.7658H292.065V20.5137C292.065 21.1655 291.91 21.7049 291.599 22.1317C291.288 22.5586 290.863 22.8779 290.323 23.0897C289.784 23.3014 289.172 23.4073 288.487 23.4073ZM288.502 18.8708C288.882 18.8708 289.207 18.7781 289.475 18.5928C289.743 18.4075 289.946 18.1412 290.085 17.7937C290.224 17.4463 290.293 17.0294 290.293 16.5429C290.293 16.0631 290.224 15.6429 290.085 15.2822C289.949 14.9216 289.748 14.642 289.479 14.4434C289.215 14.2416 288.889 14.1407 288.502 14.1407C288.101 14.1407 287.767 14.2449 287.499 14.4534C287.231 14.6618 287.029 14.948 286.894 15.312C286.758 15.6727 286.69 16.083 286.69 16.5429C286.69 17.0095 286.758 17.4182 286.894 17.7689C287.033 18.1163 287.236 18.3877 287.504 18.5829C287.775 18.7748 288.108 18.8708 288.502 18.8708Z" fill="white"/>
<path d="M296.101 20.5434C295.618 20.5434 295.182 20.4574 294.795 20.2853C294.411 20.11 294.107 19.8519 293.882 19.5111C293.66 19.1702 293.549 18.75 293.549 18.2504C293.549 17.8202 293.629 17.4645 293.788 17.1832C293.947 16.902 294.163 16.677 294.438 16.5082C294.713 16.3394 295.022 16.2121 295.366 16.126C295.714 16.0367 296.073 15.9722 296.443 15.9324C296.89 15.8861 297.252 15.8448 297.53 15.8084C297.808 15.7687 298.01 15.7091 298.136 15.6297C298.265 15.547 298.329 15.4196 298.329 15.2475V15.2177C298.329 14.8438 298.218 14.5543 297.997 14.3491C297.775 14.144 297.456 14.0414 297.039 14.0414C296.599 14.0414 296.25 14.1374 295.991 14.3293C295.737 14.5212 295.565 14.7479 295.475 15.0093L293.798 14.771C293.93 14.3078 294.148 13.9206 294.453 13.6096C294.757 13.2952 295.129 13.0603 295.57 12.9048C296.01 12.7459 296.496 12.6665 297.029 12.6665C297.396 12.6665 297.762 12.7096 298.126 12.7956C298.49 12.8816 298.822 13.0239 299.123 13.2224C299.424 13.4177 299.666 13.684 299.848 14.0215C300.033 14.3591 300.126 14.7809 300.126 15.2872V20.3896H298.399V19.3423H298.339C298.23 19.5541 298.076 19.7526 297.878 19.9379C297.682 20.1199 297.436 20.2671 297.138 20.3796C296.844 20.4888 296.498 20.5434 296.101 20.5434ZM296.567 19.2232C296.928 19.2232 297.241 19.152 297.505 19.0098C297.77 18.8642 297.974 18.6722 298.116 18.434C298.261 18.1958 298.334 17.936 298.334 17.6547V16.7564C298.278 16.8027 298.182 16.8457 298.046 16.8854C297.914 16.9251 297.765 16.9599 297.6 16.9896C297.434 17.0194 297.27 17.0459 297.108 17.0691C296.946 17.0922 296.805 17.1121 296.686 17.1286C296.418 17.165 296.178 17.2246 295.967 17.3073C295.755 17.39 295.588 17.5058 295.465 17.6547C295.343 17.8003 295.282 17.9889 295.282 18.2206C295.282 18.5515 295.402 18.8013 295.644 18.97C295.886 19.1388 296.193 19.2232 296.567 19.2232Z" fill="white"/>
<path d="M304.762 20.5236C304.163 20.5236 303.627 20.3697 303.154 20.062C302.68 19.7543 302.307 19.3076 302.032 18.7219C301.757 18.1362 301.62 17.4248 301.62 16.5876C301.62 15.7405 301.759 15.0258 302.037 14.4434C302.318 13.8577 302.697 13.416 303.173 13.1182C303.65 12.8171 304.181 12.6665 304.767 12.6665C305.213 12.6665 305.581 12.7426 305.869 12.8949C306.156 13.0438 306.385 13.2241 306.554 13.4359C306.722 13.6443 306.853 13.8412 306.946 14.0265H307.02V10.2245H308.822V20.3896H307.055V19.1884H306.946C306.853 19.3737 306.719 19.5706 306.544 19.7791C306.368 19.9842 306.137 20.1596 305.849 20.3052C305.561 20.4508 305.199 20.5236 304.762 20.5236ZM305.263 19.0495C305.644 19.0495 305.968 18.9469 306.236 18.7417C306.504 18.5333 306.707 18.2437 306.846 17.8731C306.985 17.5025 307.055 17.0707 307.055 16.5777C307.055 16.0847 306.985 15.6562 306.846 15.2922C306.711 14.9282 306.509 14.6453 306.241 14.4434C305.976 14.2416 305.65 14.1407 305.263 14.1407C304.863 14.1407 304.529 14.2449 304.26 14.4534C303.992 14.6618 303.791 14.9497 303.655 15.317C303.519 15.6843 303.451 16.1045 303.451 16.5777C303.451 17.0542 303.519 17.4794 303.655 17.8533C303.794 18.2239 303.997 18.5167 304.265 18.7318C304.537 18.9436 304.869 19.0495 305.263 19.0495Z" fill="white"/>
<path d="M312.93 20.5434C312.447 20.5434 312.012 20.4574 311.625 20.2853C311.241 20.11 310.937 19.8519 310.712 19.5111C310.49 19.1702 310.379 18.75 310.379 18.2504C310.379 17.8202 310.459 17.4645 310.617 17.1832C310.776 16.902 310.993 16.677 311.268 16.5082C311.542 16.3394 311.852 16.2121 312.196 16.126C312.543 16.0367 312.902 15.9722 313.273 15.9324C313.719 15.8861 314.082 15.8448 314.36 15.8084C314.638 15.7687 314.84 15.7091 314.965 15.6297C315.094 15.547 315.159 15.4196 315.159 15.2475V15.2177C315.159 14.8438 315.048 14.5543 314.826 14.3491C314.605 14.144 314.285 14.0414 313.868 14.0414C313.428 14.0414 313.079 14.1374 312.821 14.3293C312.566 14.5212 312.394 14.7479 312.305 15.0093L310.627 14.771C310.76 14.3078 310.978 13.9206 311.282 13.6096C311.587 13.2952 311.959 13.0603 312.399 12.9048C312.839 12.7459 313.326 12.6665 313.858 12.6665C314.226 12.6665 314.591 12.7096 314.955 12.7956C315.319 12.8816 315.652 13.0239 315.953 13.2224C316.254 13.4177 316.496 13.684 316.678 14.0215C316.863 14.3591 316.956 14.7809 316.956 15.2872V20.3896H315.228V19.3423H315.169C315.06 19.5541 314.906 19.7526 314.707 19.9379C314.512 20.1199 314.265 20.2671 313.968 20.3796C313.673 20.4888 313.327 20.5434 312.93 20.5434ZM313.397 19.2232C313.758 19.2232 314.07 19.152 314.335 19.0098C314.6 18.8642 314.803 18.6722 314.945 18.434C315.091 18.1958 315.164 17.936 315.164 17.6547V16.7564C315.108 16.8027 315.012 16.8457 314.876 16.8854C314.744 16.9251 314.595 16.9599 314.429 16.9896C314.264 17.0194 314.1 17.0459 313.938 17.0691C313.776 17.0922 313.635 17.1121 313.516 17.1286C313.248 17.165 313.008 17.2246 312.796 17.3073C312.585 17.39 312.417 17.5058 312.295 17.6547C312.173 17.8003 312.111 17.9889 312.111 18.2206C312.111 18.5515 312.232 18.8013 312.474 18.97C312.715 19.1388 313.023 19.2232 313.397 19.2232Z" fill="white"/>
<rect x="285.379" y="50.6663" width="0.873557" height="17.4711" transform="rotate(-180 285.379 50.6663)" fill="white"/>
<path d="M869.784 112.252C920.014 153.746 935.738 223.403 935.738 262.504C935.738 329.331 893.807 393.537 875.899 415.376C857.991 437.215 884.198 454.686 884.198 454.686C884.198 454.686 1011.74 485.698 1055.85 493.123C1055.85 493.123 1110.01 509.284 1126.17 549.467C1142.33 589.651 1180.77 631.145 1163.74 638.133C1146.7 645.122 1126.17 643.375 1126.17 643.375C1114.82 594.456 1077.23 552.088 1071.14 541.605C1069.52 538.824 968.06 497.928 869.784 477.399C575.908 464.732 346.277 475.866 339.539 470.411C330.367 462.985 319.89 457.432 319.011 415.376C318.132 373.321 280.382 248.479 266.161 225.814C269.195 221.691 229.268 207.641 194.966 211.838C171.707 237.269 160.936 251.211 147.357 293.078C158.29 305.834 170.377 307.444 194.966 307.492C228.088 300.924 242.812 308.779 266.161 331.515C289.024 352.685 291.091 372.941 286.69 415.376C287.932 468.474 266.161 481.767 218.988 481.767C171.816 481.767 103.679 454.686 62.6221 415.376C21.5654 376.066 13.6952 342.128 8.0248 268.182C7.53918 228.828 14.1019 202.071 35.1462 158.987M869.784 112.252C840.957 99.5856 844.674 59.4017 828.727 59.4017H202.828L158.276 64.2064L114.162 82.9879C84.851 99.478 69.9157 111.791 45.5877 138.459C41.7665 145.732 38.2943 152.542 35.1462 158.987M869.784 112.252C846.078 95.9539 831.225 89.6816 799.904 87.3557H280.574C255.44 89.9625 240.678 92.2561 210.69 100.896H114.162C93.1902 98.9107 73.8467 116.727 35.1462 158.987" stroke="white" stroke-width="14.58" stroke-linejoin="round"/>
<path d="M592.917 20.0918V9.92676H594.759V18.5482H599.236V20.0918H592.917Z" fill="white"/>
<path d="M602.948 20.2456C602.465 20.2456 602.03 20.1596 601.643 19.9876C601.259 19.8122 600.955 19.5541 600.73 19.2133C600.508 18.8724 600.397 18.4522 600.397 17.9526C600.397 17.5224 600.477 17.1667 600.636 16.8854C600.794 16.6042 601.011 16.3792 601.286 16.2104C601.56 16.0417 601.87 15.9143 602.214 15.8282C602.561 15.7389 602.92 15.6744 603.291 15.6347C603.738 15.5883 604.1 15.547 604.378 15.5106C604.656 15.4709 604.858 15.4113 604.983 15.3319C605.113 15.2492 605.177 15.1218 605.177 14.9497V14.9199C605.177 14.546 605.066 14.2565 604.845 14.0513C604.623 13.8462 604.304 13.7436 603.887 13.7436C603.446 13.7436 603.097 13.8396 602.839 14.0315C602.585 14.2234 602.412 14.4501 602.323 14.7115L600.645 14.4732C600.778 14.01 600.996 13.6228 601.301 13.3118C601.605 12.9974 601.977 12.7625 602.417 12.607C602.858 12.4482 603.344 12.3687 603.877 12.3687C604.244 12.3687 604.61 12.4118 604.974 12.4978C605.338 12.5838 605.67 12.7261 605.971 12.9246C606.272 13.1199 606.514 13.3862 606.696 13.7238C606.881 14.0613 606.974 14.4832 606.974 14.9894V20.0918H605.247V19.0445H605.187C605.078 19.2563 604.924 19.4548 604.725 19.6401C604.53 19.8221 604.284 19.9694 603.986 20.0819C603.691 20.1911 603.346 20.2456 602.948 20.2456ZM603.415 18.9254C603.776 18.9254 604.088 18.8542 604.353 18.712C604.618 18.5664 604.821 18.3745 604.964 18.1362C605.109 17.898 605.182 17.6382 605.182 17.357V16.4586C605.126 16.5049 605.03 16.5479 604.894 16.5876C604.762 16.6273 604.613 16.6621 604.447 16.6919C604.282 16.7216 604.118 16.7481 603.956 16.7713C603.794 16.7944 603.653 16.8143 603.534 16.8308C603.266 16.8672 603.026 16.9268 602.814 17.0095C602.603 17.0922 602.436 17.2081 602.313 17.357C602.191 17.5025 602.13 17.6912 602.13 17.9228C602.13 18.2537 602.25 18.5035 602.492 18.6723C602.733 18.841 603.041 18.9254 603.415 18.9254Z" fill="white"/>
<path d="M608.78 20.0918V12.468H610.523V13.7386H610.602C610.741 13.2986 610.979 12.9594 611.317 12.7211C611.658 12.4796 612.046 12.3588 612.483 12.3588C612.582 12.3588 612.693 12.3638 612.816 12.3737C612.941 12.3803 613.046 12.3919 613.128 12.4085V14.0613C613.052 14.0348 612.932 14.0116 612.766 13.9918C612.604 13.9686 612.447 13.957 612.295 13.957C611.967 13.957 611.672 14.0282 611.411 14.1705C611.153 14.3094 610.949 14.503 610.801 14.7512C610.652 14.9993 610.577 15.2856 610.577 15.6098V20.0918H608.78Z" fill="white"/>
<path d="M617.324 23.1095C616.678 23.1095 616.124 23.0218 615.661 22.8465C615.198 22.6744 614.825 22.4428 614.544 22.1516C614.263 21.8604 614.068 21.5378 613.959 21.1837L615.577 20.7916C615.649 20.9405 615.755 21.0878 615.894 21.2334C616.033 21.3823 616.22 21.5047 616.455 21.6007C616.693 21.6999 616.993 21.7496 617.354 21.7496C617.863 21.7496 618.285 21.6255 618.619 21.3773C618.953 21.1324 619.12 20.7288 619.12 20.1662V18.7219H619.031C618.938 18.9072 618.803 19.0975 618.624 19.2927C618.449 19.4879 618.215 19.6517 617.924 19.7841C617.636 19.9164 617.274 19.9826 616.837 19.9826C616.252 19.9826 615.721 19.8453 615.244 19.5706C614.771 19.2927 614.394 18.8791 614.112 18.3298C613.834 17.7772 613.695 17.0856 613.695 16.2551C613.695 15.4179 613.834 14.7115 614.112 14.1357C614.394 13.5567 614.773 13.1182 615.249 12.8204C615.726 12.5193 616.257 12.3687 616.842 12.3687C617.289 12.3687 617.656 12.4449 617.944 12.5971C618.235 12.746 618.467 12.9263 618.639 13.1381C618.811 13.3465 618.942 13.5434 619.031 13.7287H619.13V12.468H620.902V20.2159C620.902 20.8677 620.747 21.4071 620.436 21.8339C620.125 22.2608 619.7 22.5801 619.16 22.7919C618.621 23.0036 618.009 23.1095 617.324 23.1095ZM617.339 18.573C617.719 18.573 618.043 18.4803 618.311 18.295C618.579 18.1097 618.783 17.8434 618.922 17.4959C619.061 17.1485 619.13 16.7316 619.13 16.2452C619.13 15.7654 619.061 15.3451 618.922 14.9845C618.786 14.6238 618.584 14.3442 618.316 14.1456C618.052 13.9438 617.726 13.8429 617.339 13.8429C616.938 13.8429 616.604 13.9471 616.336 14.1556C616.068 14.364 615.866 14.6503 615.73 15.0142C615.595 15.3749 615.527 15.7852 615.527 16.2452C615.527 16.7117 615.595 17.1204 615.73 17.4711C615.869 17.8186 616.073 18.0899 616.341 18.2851C616.612 18.477 616.945 18.573 617.339 18.573Z" fill="white"/>
<path d="M624.938 20.2456C624.454 20.2456 624.019 20.1596 623.632 19.9876C623.248 19.8122 622.944 19.5541 622.719 19.2133C622.497 18.8724 622.386 18.4522 622.386 17.9526C622.386 17.5224 622.466 17.1667 622.625 16.8854C622.783 16.6042 623 16.3792 623.275 16.2104C623.549 16.0417 623.859 15.9143 624.203 15.8282C624.55 15.7389 624.909 15.6744 625.28 15.6347C625.727 15.5883 626.089 15.547 626.367 15.5106C626.645 15.4709 626.847 15.4113 626.973 15.3319C627.102 15.2492 627.166 15.1218 627.166 14.9497V14.9199C627.166 14.546 627.055 14.2565 626.834 14.0513C626.612 13.8462 626.293 13.7436 625.876 13.7436C625.436 13.7436 625.086 13.8396 624.828 14.0315C624.574 14.2234 624.402 14.4501 624.312 14.7115L622.635 14.4732C622.767 14.01 622.985 13.6228 623.29 13.3118C623.594 12.9974 623.966 12.7625 624.406 12.607C624.847 12.4482 625.333 12.3687 625.866 12.3687C626.233 12.3687 626.599 12.4118 626.963 12.4978C627.327 12.5838 627.659 12.7261 627.96 12.9246C628.261 13.1199 628.503 13.3862 628.685 13.7238C628.87 14.0613 628.963 14.4832 628.963 14.9894V20.0918H627.236V19.0445H627.176C627.067 19.2563 626.913 19.4548 626.714 19.6401C626.519 19.8221 626.273 19.9694 625.975 20.0819C625.68 20.1911 625.335 20.2456 624.938 20.2456ZM625.404 18.9254C625.765 18.9254 626.077 18.8542 626.342 18.712C626.607 18.5664 626.81 18.3745 626.953 18.1362C627.098 17.898 627.171 17.6382 627.171 17.357V16.4586C627.115 16.5049 627.019 16.5479 626.883 16.5876C626.751 16.6273 626.602 16.6621 626.437 16.6919C626.271 16.7216 626.107 16.7481 625.945 16.7713C625.783 16.7944 625.642 16.8143 625.523 16.8308C625.255 16.8672 625.015 16.9268 624.804 17.0095C624.592 17.0922 624.425 17.2081 624.302 17.357C624.18 17.5025 624.119 17.6912 624.119 17.9228C624.119 18.2537 624.239 18.5035 624.481 18.6723C624.722 18.841 625.03 18.9254 625.404 18.9254Z" fill="white"/>
<path d="M633.599 20.2258C633 20.2258 632.464 20.0719 631.991 19.7642C631.517 19.4565 631.143 19.0098 630.869 18.4241C630.594 17.8384 630.457 17.127 630.457 16.2898C630.457 15.4427 630.596 14.728 630.874 14.1456C631.155 13.56 631.534 13.1182 632.01 12.8204C632.487 12.5193 633.018 12.3687 633.604 12.3687C634.05 12.3687 634.418 12.4449 634.706 12.5971C634.993 12.746 635.222 12.9263 635.39 13.1381C635.559 13.3465 635.69 13.5434 635.783 13.7287H635.857V9.92676H637.659V20.0918H635.892V18.8906H635.783C635.69 19.0759 635.556 19.2728 635.381 19.4813C635.205 19.6864 634.974 19.8618 634.686 20.0074C634.398 20.153 634.035 20.2258 633.599 20.2258ZM634.1 18.7517C634.481 18.7517 634.805 18.6491 635.073 18.4439C635.341 18.2355 635.544 17.9459 635.683 17.5753C635.822 17.2047 635.892 16.7729 635.892 16.2799C635.892 15.7869 635.822 15.3584 635.683 14.9944C635.548 14.6304 635.346 14.3475 635.078 14.1456C634.813 13.9438 634.487 13.8429 634.1 13.8429C633.7 13.8429 633.365 13.9471 633.097 14.1556C632.829 14.364 632.628 14.6519 632.492 15.0192C632.356 15.3865 632.288 15.8067 632.288 16.2799C632.288 16.7564 632.356 17.1816 632.492 17.5555C632.631 17.9261 632.834 18.2189 633.102 18.434C633.374 18.6458 633.706 18.7517 634.1 18.7517Z" fill="white"/>
<path d="M641.767 20.2456C641.284 20.2456 640.849 20.1596 640.462 19.9876C640.078 19.8122 639.774 19.5541 639.549 19.2133C639.327 18.8724 639.216 18.4522 639.216 17.9526C639.216 17.5224 639.295 17.1667 639.454 16.8854C639.613 16.6042 639.83 16.3792 640.104 16.2104C640.379 16.0417 640.688 15.9143 641.033 15.8282C641.38 15.7389 641.739 15.6744 642.11 15.6347C642.556 15.5883 642.919 15.547 643.197 15.5106C643.475 15.4709 643.676 15.4113 643.802 15.3319C643.931 15.2492 643.996 15.1218 643.996 14.9497V14.9199C643.996 14.546 643.885 14.2565 643.663 14.0513C643.442 13.8462 643.122 13.7436 642.705 13.7436C642.265 13.7436 641.916 13.8396 641.658 14.0315C641.403 14.2234 641.231 14.4501 641.142 14.7115L639.464 14.4732C639.597 14.01 639.815 13.6228 640.119 13.3118C640.424 12.9974 640.796 12.7625 641.236 12.607C641.676 12.4482 642.163 12.3687 642.695 12.3687C643.063 12.3687 643.428 12.4118 643.792 12.4978C644.156 12.5838 644.489 12.7261 644.79 12.9246C645.091 13.1199 645.333 13.3862 645.515 13.7238C645.7 14.0613 645.792 14.4832 645.792 14.9894V20.0918H644.065V19.0445H644.006C643.896 19.2563 643.743 19.4548 643.544 19.6401C643.349 19.8221 643.102 19.9694 642.805 20.0819C642.51 20.1911 642.164 20.2456 641.767 20.2456ZM642.234 18.9254C642.594 18.9254 642.907 18.8542 643.172 18.712C643.437 18.5664 643.64 18.3745 643.782 18.1362C643.928 17.898 644.001 17.6382 644.001 17.357V16.4586C643.944 16.5049 643.849 16.5479 643.713 16.5876C643.58 16.6273 643.432 16.6621 643.266 16.6919C643.101 16.7216 642.937 16.7481 642.775 16.7713C642.613 16.7944 642.472 16.8143 642.353 16.8308C642.085 16.8672 641.845 16.9268 641.633 17.0095C641.421 17.0922 641.254 17.2081 641.132 17.357C641.009 17.5025 640.948 17.6912 640.948 17.9228C640.948 18.2537 641.069 18.5035 641.311 18.6723C641.552 18.841 641.86 18.9254 642.234 18.9254Z" fill="white"/>
<path d="M582.806 0.5H656.058V30.0745H582.806V0.5Z" stroke="white"/>
<rect x="618.995" y="30.5745" width="0.873557" height="20.0918" fill="white"/>
<path d="M618.122 50.2534L620.742 49.994V67.5457L618.122 67.803V50.2534Z" fill="white"/>
<path d="M641.733 68.1479L631.381 68.2858L638.382 59.4562L631.148 50.8162L641.501 50.6783L648.734 59.3183L641.733 68.1479Z" fill="#4477BB"/>
<path d="M660.16 67.9855L649.808 68.1234L656.809 59.2938L649.575 50.6538L659.928 50.5159L667.161 59.1559L660.16 67.9855Z" fill="#4477BB"/>
<path d="M676.735 67.9345L666.383 68.0724L673.384 59.2428L666.15 50.6028L676.502 50.4649L683.736 59.1049L676.735 67.9345Z" fill="#4477BB"/>
</svg>
