<svg width="1176" height="382" viewBox="0 0 1176 382" fill="none" xmlns="http://www.w3.org/2000/svg">
<path d="M205.718 310.24C202.402 319.351 195.071 325.875 179.786 324.407C133.237 309.221 106.85 299.836 61.6725 297.36C16.4947 294.885 -18.2089 332.6 34.6137 341.58C112.176 324.617 228.207 381.263 233.045 364.763C237.883 348.263 249.727 316.877 260.963 310.24C301.162 289.517 365.762 280.188 386.378 275.036C406.994 269.884 552.277 373.055 635.92 373.779C636.883 360.839 632.484 346.732 640.215 346.303C647.947 345.873 707.855 350.207 736.854 341.58C745.79 347.84 740.29 356.177 750.598 360.47C760.906 364.763 890.592 318.277 969.646 275.036C1062.2 197.941 1106.01 149.261 1167.65 51.3611C1170.06 17.0453 1160.45 8.19383 1126.84 8C1060.9 22.8607 1025.06 31.1739 948.171 46.2093C951.292 60.1984 948.171 65.5286 948.171 73.6856C948.171 81.8427 922.151 60.0863 906.938 51.3611C878.068 57.2169 846.243 65.533 815.701 74.1032M205.718 310.24C210.722 296.493 206.587 276.855 206.845 269.884C207.275 258.292 445.65 188.314 445.65 188.314L635.92 125.204C643.283 107.901 650.792 96.0102 658.255 87.4238C665.717 78.8375 667.514 105.343 677.153 110.607C683.841 114.259 746.475 93.5284 815.701 74.1032M205.718 310.24C205.718 310.24 220.552 280.188 233.045 275.036C245.538 269.884 640.215 146.078 640.215 146.078L692.925 130.048H725.349L815.701 74.1032" stroke="white" stroke-width="14.58"/>
<path d="M455.197 135.303L535.02 113.324L541.718 137.65L461.895 159.629L455.197 135.303Z" stroke="white"/>
<path d="M478.998 146.369L476.747 138.195L479.813 137.35C480.441 137.178 481 137.15 481.49 137.267C481.983 137.383 482.395 137.616 482.726 137.965C483.059 138.312 483.297 138.744 483.44 139.263C483.584 139.787 483.602 140.284 483.493 140.751C483.385 141.219 483.147 141.63 482.78 141.983C482.413 142.333 481.914 142.595 481.283 142.768L479.252 143.328L478.916 142.11L480.748 141.606C481.116 141.505 481.399 141.358 481.598 141.166C481.797 140.974 481.921 140.751 481.972 140.496C482.024 140.241 482.011 139.969 481.931 139.679C481.851 139.389 481.724 139.149 481.548 138.96C481.376 138.769 481.154 138.646 480.884 138.589C480.615 138.528 480.296 138.549 479.926 138.65L478.569 139.024L480.479 145.961L478.998 146.369Z" fill="white"/>
<path d="M486.168 144.395L484.48 138.264L485.925 137.866L487.613 143.997L486.168 144.395ZM484.967 137.194C484.738 137.257 484.52 137.235 484.313 137.129C484.106 137.02 483.972 136.858 483.913 136.642C483.853 136.424 483.885 136.216 484.008 136.019C484.13 135.82 484.306 135.688 484.535 135.625C484.766 135.561 484.984 135.584 485.189 135.694C485.396 135.8 485.529 135.963 485.59 136.181C485.649 136.396 485.617 136.604 485.495 136.804C485.374 137 485.198 137.13 484.967 137.194Z" fill="white"/>
<path d="M490.472 136.614L490.78 137.732L487.255 138.702L486.948 137.585L490.472 136.614ZM487.413 135.876L488.858 135.478L490.443 141.234C490.496 141.428 490.567 141.569 490.654 141.657C490.743 141.741 490.842 141.788 490.951 141.798C491.059 141.809 491.173 141.797 491.293 141.764C491.384 141.739 491.464 141.71 491.535 141.676C491.609 141.642 491.664 141.613 491.701 141.592L492.255 142.654C492.186 142.702 492.083 142.762 491.948 142.833C491.816 142.904 491.648 142.97 491.445 143.032C491.086 143.142 490.745 143.178 490.422 143.138C490.098 143.095 489.816 142.97 489.575 142.761C489.337 142.552 489.167 142.255 489.064 141.871L487.413 135.876Z" fill="white"/>
<path d="M496.221 141.627L493.97 133.453L495.451 133.045L497.36 139.978L500.96 138.987L501.302 140.228L496.221 141.627Z" fill="white"/>
<path d="M504.321 139.53C503.933 139.637 503.564 139.664 503.214 139.611C502.867 139.555 502.565 139.415 502.309 139.191C502.055 138.966 501.873 138.652 501.762 138.251C501.667 137.905 501.652 137.601 501.717 137.34C501.783 137.078 501.907 136.849 502.091 136.653C502.274 136.456 502.495 136.285 502.752 136.14C503.012 135.991 503.287 135.86 503.576 135.746C503.925 135.61 504.207 135.496 504.422 135.405C504.637 135.312 504.786 135.219 504.87 135.128C504.955 135.032 504.979 134.916 504.941 134.777L504.934 134.753C504.851 134.453 504.698 134.244 504.475 134.128C504.251 134.013 503.971 134.001 503.636 134.093C503.282 134.191 503.023 134.345 502.858 134.557C502.695 134.767 502.607 134.988 502.593 135.218L501.191 135.398C501.195 134.996 501.285 134.636 501.461 134.318C501.636 133.998 501.883 133.727 502.203 133.504C502.522 133.279 502.895 133.108 503.324 132.99C503.619 132.908 503.923 132.862 504.234 132.851C504.546 132.839 504.845 132.88 505.131 132.973C505.416 133.063 505.67 133.224 505.891 133.455C506.115 133.685 506.282 134.004 506.395 134.411L507.524 138.515L506.135 138.897L505.903 138.055L505.856 138.068C505.815 138.263 505.735 138.456 505.616 138.649C505.5 138.839 505.334 139.012 505.119 139.168C504.907 139.321 504.641 139.442 504.321 139.53ZM504.404 138.365C504.694 138.285 504.93 138.158 505.111 137.985C505.292 137.81 505.413 137.61 505.475 137.387C505.539 137.163 505.54 136.938 505.478 136.712L505.279 135.99C505.244 136.039 505.176 136.095 505.076 136.157C504.978 136.218 504.866 136.279 504.74 136.34C504.613 136.4 504.488 136.458 504.362 136.513C504.237 136.567 504.128 136.614 504.036 136.654C503.829 136.742 503.649 136.843 503.497 136.957C503.345 137.07 503.236 137.2 503.171 137.347C503.105 137.492 503.097 137.657 503.148 137.843C503.222 138.109 503.374 138.283 503.606 138.365C503.837 138.448 504.104 138.447 504.404 138.365Z" fill="white"/>
<path d="M509.433 134.124L510.422 137.717L508.977 138.115L507.289 131.984L508.67 131.603L508.957 132.645L509.029 132.625C509.075 132.243 509.225 131.909 509.478 131.621C509.734 131.333 510.09 131.126 510.548 131C510.971 130.884 511.365 130.873 511.729 130.967C512.095 131.061 512.412 131.256 512.679 131.552C512.95 131.846 513.151 132.239 513.283 132.729L514.358 136.633L512.913 137.031L511.9 133.351C511.787 132.941 511.592 132.65 511.315 132.477C511.041 132.303 510.718 132.268 510.346 132.37C510.093 132.44 509.883 132.558 509.717 132.724C509.553 132.886 509.444 133.087 509.389 133.325C509.337 133.563 509.352 133.829 509.433 134.124Z" fill="white"/>
<path d="M518.574 135.601C517.959 135.77 517.393 135.789 516.876 135.656C516.36 135.521 515.918 135.25 515.549 134.845C515.179 134.437 514.906 133.913 514.729 133.272C514.555 132.641 514.523 132.055 514.631 131.512C514.741 130.967 514.977 130.501 515.337 130.116C515.697 129.727 516.17 129.453 516.755 129.291C517.133 129.187 517.506 129.15 517.875 129.181C518.246 129.207 518.595 129.311 518.923 129.493C519.254 129.674 519.547 129.94 519.804 130.29C520.06 130.637 520.262 131.08 520.41 131.617L520.532 132.06L515.507 133.444L515.238 132.47L518.879 131.468C518.8 131.192 518.672 130.962 518.496 130.779C518.318 130.593 518.108 130.466 517.863 130.399C517.621 130.331 517.362 130.335 517.085 130.412C516.789 130.493 516.55 130.636 516.366 130.841C516.181 131.044 516.058 131.278 515.997 131.544C515.937 131.807 515.944 132.075 516.017 132.35L516.251 133.2C516.349 133.557 516.499 133.845 516.699 134.065C516.899 134.282 517.135 134.426 517.407 134.497C517.677 134.565 517.97 134.556 518.284 134.47C518.494 134.412 518.676 134.33 518.83 134.225C518.984 134.117 519.107 133.987 519.2 133.836C519.293 133.684 519.347 133.513 519.363 133.322L520.754 133.103C520.767 133.483 520.691 133.839 520.525 134.171C520.36 134.499 520.113 134.788 519.784 135.036C519.453 135.282 519.05 135.47 518.574 135.601Z" fill="white"/>
<path d="M501.588 149.218L502.291 149.025L505.772 161.67L505.07 161.863L501.588 149.218Z" fill="white"/>
<path d="M398.776 167.91L396.659 159.7L398.146 159.316L399.942 166.28L403.558 165.347L403.879 166.594L398.776 167.91Z" fill="white"/>
<path d="M406.91 165.945C406.52 166.046 406.15 166.067 405.802 166.008C405.455 165.947 405.156 165.802 404.903 165.573C404.653 165.344 404.476 165.028 404.372 164.624C404.282 164.277 404.272 163.973 404.342 163.713C404.412 163.452 404.54 163.226 404.726 163.032C404.913 162.839 405.136 162.671 405.396 162.53C405.658 162.386 405.935 162.259 406.226 162.149C406.577 162.019 406.861 161.91 407.078 161.823C407.294 161.733 407.445 161.643 407.53 161.552C407.617 161.459 407.643 161.342 407.607 161.203L407.601 161.179C407.523 160.877 407.373 160.667 407.151 160.547C406.929 160.427 406.65 160.411 406.313 160.498C405.958 160.59 405.696 160.74 405.527 160.949C405.362 161.157 405.27 161.376 405.252 161.605L403.847 161.762C403.858 161.361 403.954 161.002 404.135 160.688C404.315 160.37 404.567 160.103 404.89 159.886C405.212 159.666 405.589 159.501 406.019 159.39C406.316 159.313 406.62 159.272 406.932 159.265C407.244 159.259 407.542 159.305 407.826 159.402C408.11 159.497 408.361 159.662 408.578 159.897C408.798 160.131 408.961 160.452 409.066 160.861L410.129 164.982L408.734 165.342L408.516 164.496L408.468 164.509C408.424 164.702 408.341 164.895 408.219 165.086C408.099 165.273 407.931 165.444 407.714 165.597C407.498 165.746 407.231 165.862 406.91 165.945ZM407.012 164.781C407.303 164.706 407.541 164.584 407.725 164.414C407.908 164.241 408.033 164.044 408.098 163.822C408.166 163.599 408.171 163.374 408.112 163.147L407.925 162.421C407.889 162.47 407.821 162.525 407.719 162.585C407.621 162.645 407.508 162.704 407.38 162.762C407.253 162.821 407.126 162.876 407 162.929C406.874 162.981 406.764 163.027 406.672 163.065C406.463 163.15 406.281 163.248 406.128 163.359C405.974 163.47 405.863 163.598 405.795 163.744C405.726 163.887 405.716 164.052 405.765 164.239C405.833 164.507 405.983 164.683 406.213 164.769C406.444 164.855 406.71 164.859 407.012 164.781Z" fill="white"/>
<path d="M411.588 164.606L410 158.448L411.407 158.086L411.672 159.112L411.736 159.095C411.757 158.711 411.879 158.387 412.102 158.125C412.327 157.859 412.615 157.68 412.968 157.589C413.048 157.568 413.139 157.549 413.24 157.532C413.343 157.511 413.429 157.499 413.5 157.495L413.844 158.83C413.777 158.824 413.675 158.831 413.537 158.849C413.401 158.864 413.272 158.887 413.149 158.919C412.884 158.987 412.661 159.106 412.48 159.276C412.3 159.442 412.176 159.64 412.107 159.872C412.039 160.103 412.038 160.35 412.106 160.612L413.039 164.232L411.588 164.606Z" fill="white"/>
<path d="M419.117 165.264C418.596 165.398 418.13 165.443 417.719 165.398C417.309 165.355 416.96 165.246 416.673 165.069C416.385 164.893 416.16 164.673 415.998 164.41L417.223 163.756C417.313 163.861 417.429 163.958 417.572 164.046C417.715 164.138 417.891 164.198 418.101 164.226C418.314 164.257 418.567 164.235 418.858 164.159C419.269 164.053 419.584 163.865 419.803 163.595C420.021 163.328 420.072 162.967 419.955 162.513L419.654 161.346L419.582 161.365C419.546 161.534 419.476 161.716 419.372 161.91C419.271 162.105 419.117 162.285 418.909 162.453C418.705 162.62 418.426 162.749 418.073 162.84C417.6 162.962 417.142 162.961 416.7 162.839C416.26 162.713 415.869 162.457 415.528 162.072C415.188 161.684 414.932 161.154 414.759 160.483C414.585 159.807 414.55 159.208 414.654 158.685C414.761 158.159 414.975 157.726 415.298 157.386C415.62 157.043 416.018 156.811 416.491 156.689C416.852 156.596 417.164 156.581 417.429 156.644C417.695 156.704 417.919 156.801 418.103 156.936C418.285 157.069 418.432 157.201 418.542 157.332L418.622 157.311L418.36 156.293L419.791 155.924L421.405 162.182C421.54 162.708 421.527 163.176 421.365 163.586C421.203 163.995 420.926 164.342 420.534 164.625C420.143 164.908 419.67 165.121 419.117 165.264ZM418.184 161.597C418.492 161.518 418.734 161.375 418.912 161.17C419.09 160.964 419.199 160.707 419.239 160.397C419.279 160.088 419.248 159.736 419.147 159.344C419.047 158.956 418.903 158.631 418.716 158.369C418.531 158.106 418.31 157.922 418.052 157.817C417.796 157.709 417.512 157.696 417.199 157.776C416.876 157.86 416.627 158.014 416.454 158.238C416.281 158.462 416.178 158.735 416.144 159.057C416.11 159.377 416.14 159.723 416.236 160.094C416.333 160.471 416.473 160.787 416.656 161.042C416.84 161.294 417.061 161.47 417.318 161.572C417.578 161.671 417.866 161.679 418.184 161.597Z" fill="white"/>
<path d="M424.67 161.365C424.28 161.466 423.911 161.487 423.562 161.429C423.216 161.367 422.916 161.222 422.663 160.993C422.413 160.764 422.236 160.448 422.132 160.044C422.042 159.697 422.032 159.393 422.102 159.133C422.172 158.873 422.3 158.646 422.487 158.452C422.673 158.259 422.897 158.091 423.157 157.95C423.419 157.806 423.695 157.679 423.986 157.57C424.338 157.439 424.622 157.33 424.838 157.243C425.055 157.153 425.205 157.063 425.29 156.973C425.377 156.879 425.403 156.762 425.367 156.624L425.361 156.599C425.283 156.297 425.133 156.087 424.911 155.967C424.69 155.848 424.41 155.831 424.074 155.918C423.718 156.01 423.456 156.16 423.288 156.369C423.122 156.577 423.03 156.796 423.012 157.026L421.608 157.182C421.618 156.781 421.714 156.423 421.895 156.108C422.075 155.791 422.327 155.523 422.65 155.306C422.973 155.086 423.349 154.921 423.779 154.81C424.076 154.733 424.38 154.692 424.692 154.686C425.004 154.679 425.302 154.725 425.587 154.823C425.871 154.917 426.121 155.082 426.338 155.317C426.558 155.551 426.721 155.872 426.827 156.281L427.889 160.402L426.494 160.762L426.276 159.916L426.228 159.929C426.184 160.123 426.101 160.315 425.979 160.506C425.859 160.694 425.691 160.864 425.474 161.017C425.259 161.166 424.991 161.282 424.67 161.365ZM424.772 160.202C425.063 160.127 425.301 160.004 425.485 159.834C425.669 159.661 425.793 159.464 425.858 159.242C425.926 159.019 425.931 158.794 425.872 158.567L425.685 157.841C425.65 157.89 425.581 157.945 425.48 158.005C425.381 158.065 425.268 158.124 425.141 158.183C425.013 158.241 424.886 158.297 424.76 158.349C424.634 158.402 424.525 158.447 424.432 158.485C424.223 158.57 424.042 158.668 423.888 158.779C423.734 158.89 423.623 159.019 423.555 159.164C423.487 159.307 423.477 159.472 423.525 159.66C423.594 159.927 423.743 160.103 423.974 160.189C424.204 160.275 424.47 160.279 424.772 160.202Z" fill="white"/>
<path d="M431.662 159.545C431.178 159.67 430.713 159.657 430.266 159.507C429.82 159.357 429.425 159.074 429.081 158.659C428.738 158.243 428.478 157.697 428.304 157.021C428.128 156.336 428.091 155.73 428.194 155.202C428.299 154.67 428.513 154.235 428.836 153.895C429.158 153.552 429.556 153.32 430.029 153.198C430.39 153.105 430.702 153.09 430.967 153.153C431.23 153.213 431.452 153.311 431.632 153.447C431.812 153.581 431.959 153.712 432.072 153.843L432.132 153.827L431.34 150.756L432.796 150.381L434.913 158.591L433.486 158.959L433.236 157.989L433.147 158.012C433.111 158.181 433.044 158.368 432.946 158.573C432.847 158.775 432.696 158.965 432.494 159.142C432.292 159.32 432.014 159.454 431.662 159.545ZM431.759 158.25C432.067 158.171 432.307 158.021 432.481 157.799C432.654 157.575 432.758 157.299 432.793 156.97C432.828 156.642 432.794 156.279 432.692 155.881C432.589 155.482 432.444 155.151 432.256 154.886C432.07 154.62 431.848 154.433 431.59 154.326C431.334 154.218 431.05 154.205 430.737 154.285C430.414 154.369 430.165 154.523 429.992 154.747C429.819 154.971 429.716 155.246 429.683 155.57C429.65 155.895 429.683 156.249 429.781 156.631C429.881 157.016 430.024 157.345 430.211 157.619C430.401 157.889 430.626 158.083 430.887 158.201C431.151 158.316 431.441 158.332 431.759 158.25Z" fill="white"/>
<path d="M438.263 157.86C437.873 157.961 437.504 157.982 437.155 157.923C436.809 157.862 436.509 157.717 436.256 157.488C436.006 157.259 435.829 156.943 435.725 156.539C435.635 156.192 435.626 155.888 435.695 155.628C435.765 155.367 435.893 155.141 436.08 154.947C436.266 154.754 436.49 154.586 436.75 154.445C437.012 154.3 437.288 154.174 437.579 154.064C437.931 153.934 438.215 153.825 438.432 153.738C438.648 153.648 438.798 153.558 438.883 153.467C438.97 153.374 438.996 153.257 438.96 153.118L438.954 153.094C438.876 152.792 438.726 152.581 438.504 152.462C438.283 152.342 438.003 152.326 437.667 152.413C437.311 152.505 437.049 152.655 436.881 152.864C436.715 153.072 436.623 153.291 436.605 153.52L435.201 153.677C435.211 153.276 435.307 152.917 435.488 152.603C435.669 152.285 435.92 152.018 436.243 151.801C436.566 151.581 436.942 151.415 437.372 151.305C437.669 151.228 437.973 151.187 438.285 151.18C438.597 151.174 438.895 151.22 439.18 151.317C439.464 151.412 439.714 151.577 439.932 151.812C440.152 152.046 440.314 152.367 440.42 152.776L441.482 156.897L440.087 157.257L439.869 156.411L439.821 156.424C439.777 156.617 439.694 156.81 439.572 157.001C439.453 157.188 439.284 157.359 439.067 157.512C438.852 157.661 438.584 157.777 438.263 157.86ZM438.365 156.696C438.656 156.621 438.894 156.499 439.078 156.329C439.262 156.156 439.386 155.959 439.451 155.736C439.519 155.514 439.524 155.289 439.466 155.062L439.278 154.336C439.243 154.385 439.174 154.44 439.073 154.5C438.974 154.56 438.861 154.619 438.734 154.677C438.606 154.736 438.48 154.791 438.353 154.844C438.227 154.896 438.118 154.942 438.025 154.98C437.816 155.065 437.635 155.163 437.481 155.274C437.327 155.385 437.216 155.513 437.148 155.659C437.08 155.802 437.07 155.967 437.118 156.154C437.187 156.422 437.336 156.598 437.567 156.684C437.797 156.77 438.063 156.774 438.365 156.696Z" fill="white"/>
<path d="M386.629 154.252L445.634 139.036L451.752 162.762L392.748 177.978L386.629 154.252Z" stroke="white"/>
<rect x="422.022" y="170.945" width="0.728643" height="16.7588" transform="rotate(-14.4598 422.022 170.945)" fill="white"/>
<path d="M425.415 187.022L427.478 186.266L431.133 200.443L429.07 201.196L425.415 187.022Z" fill="white"/>
<path d="M406.679 191.715L414.882 189.017L411.519 197.794L419.436 202.86L411.232 205.558L403.316 200.492L406.679 191.715Z" fill="#4477BB"/>
<path d="M392.056 196.452L400.26 193.754L396.897 202.531L404.813 207.597L396.61 210.295L388.693 205.229L392.056 196.452Z" fill="#4477BB"/>
<path d="M378.88 200.637L387.083 197.939L383.72 206.716L391.637 211.782L383.433 214.481L375.517 209.414L378.88 200.637Z" fill="#4477BB"/>
</svg>
