<svg width="1176" height="304" viewBox="0 0 1176 304" fill="none" xmlns="http://www.w3.org/2000/svg">
<path d="M583.838 247.8C382.574 270.98 86.4901 301.042 83.1325 295.281C78.0478 286.557 80.5814 275.651 72.9289 269.471C65.2764 263.29 2.23266 284.011 8.4276 256.384C14.6225 228.756 423.131 200.037 436.979 198.946C450.827 197.855 548.854 170.954 556.507 170.227C564.16 169.5 587.847 204.036 590.762 198.946C593.677 193.856 598.415 156.776 617 150.96C635.585 145.144 1160.34 -8.99291 1164.71 9.54669C1169.09 28.0863 1168.72 73.1639 1165.81 78.9809C1162.89 84.7979 924.2 86.615 902.699 87.3421C881.199 88.0691 770.417 123.695 770.417 123.695C770.417 123.695 769.81 148.559 768.981 173.498M583.838 247.8C687.371 235.875 765.812 225.772 766.409 223.302C767.253 219.805 768.213 196.619 768.981 173.498M583.838 247.8C583.838 247.8 612.991 221.484 627.203 215.668C641.415 209.851 737.621 197.491 747.46 190.948C757.299 184.404 768.981 173.498 768.981 173.498" stroke="white" stroke-width="14.5766" stroke-linejoin="round"/>
<path d="M236.959 250.111V241.651H238.495V248.826H242.231V250.111H236.959Z" fill="white"/>
<path d="M245.328 250.239C244.925 250.239 244.562 250.167 244.239 250.024C243.919 249.878 243.665 249.663 243.477 249.38C243.292 249.096 243.2 248.746 243.2 248.33C243.2 247.972 243.266 247.676 243.398 247.442C243.531 247.208 243.712 247.021 243.941 246.881C244.17 246.74 244.428 246.634 244.715 246.562C245.005 246.488 245.305 246.434 245.614 246.401C245.987 246.363 246.289 246.328 246.521 246.298C246.753 246.265 246.921 246.215 247.026 246.149C247.134 246.08 247.187 245.974 247.187 245.831V245.806C247.187 245.495 247.095 245.254 246.91 245.084C246.725 244.913 246.459 244.827 246.111 244.827C245.744 244.827 245.452 244.907 245.237 245.067C245.024 245.227 244.881 245.415 244.806 245.633L243.407 245.435C243.517 245.049 243.699 244.727 243.953 244.468C244.207 244.206 244.518 244.011 244.885 243.881C245.252 243.749 245.658 243.683 246.102 243.683C246.409 243.683 246.714 243.719 247.018 243.791C247.321 243.862 247.599 243.981 247.85 244.146C248.101 244.308 248.303 244.53 248.455 244.811C248.609 245.092 248.687 245.443 248.687 245.864V250.111H247.245V249.239H247.196C247.105 249.416 246.976 249.581 246.811 249.735C246.648 249.887 246.442 250.009 246.194 250.103C245.948 250.194 245.659 250.239 245.328 250.239ZM245.717 249.14C246.018 249.14 246.279 249.081 246.5 248.963C246.721 248.841 246.891 248.682 247.009 248.483C247.131 248.285 247.192 248.069 247.192 247.835V247.087C247.145 247.126 247.065 247.161 246.951 247.194C246.841 247.228 246.717 247.256 246.579 247.281C246.441 247.306 246.304 247.328 246.169 247.347C246.033 247.367 245.916 247.383 245.817 247.397C245.593 247.427 245.393 247.477 245.216 247.546C245.04 247.614 244.9 247.711 244.798 247.835C244.696 247.956 244.645 248.113 244.645 248.306C244.645 248.581 244.746 248.789 244.947 248.929C245.149 249.07 245.405 249.14 245.717 249.14Z" fill="white"/>
<path d="M250.194 250.111V243.766H251.647V244.823H251.714C251.83 244.457 252.028 244.175 252.31 243.976C252.594 243.775 252.919 243.675 253.283 243.675C253.366 243.675 253.458 243.679 253.561 243.687C253.665 243.693 253.752 243.702 253.821 243.716V245.092C253.758 245.07 253.657 245.05 253.519 245.034C253.384 245.015 253.253 245.005 253.126 245.005C252.852 245.005 252.607 245.064 252.389 245.183C252.173 245.298 252.004 245.459 251.879 245.666C251.755 245.873 251.693 246.111 251.693 246.381V250.111H250.194Z" fill="white"/>
<path d="M257.322 252.623C256.783 252.623 256.321 252.55 255.934 252.404C255.548 252.26 255.237 252.068 255.003 251.825C254.768 251.583 254.605 251.314 254.514 251.02L255.864 250.693C255.925 250.817 256.013 250.94 256.129 251.061C256.245 251.185 256.401 251.287 256.597 251.367C256.796 251.449 257.046 251.491 257.347 251.491C257.772 251.491 258.124 251.387 258.402 251.181C258.681 250.977 258.821 250.641 258.821 250.173V248.971H258.746C258.669 249.125 258.556 249.283 258.407 249.446C258.26 249.608 258.066 249.745 257.823 249.855C257.583 249.965 257.28 250.02 256.916 250.02C256.427 250.02 255.984 249.906 255.587 249.677C255.192 249.446 254.877 249.102 254.642 248.644C254.41 248.185 254.295 247.609 254.295 246.918C254.295 246.221 254.41 245.633 254.642 245.154C254.877 244.672 255.193 244.307 255.591 244.059C255.988 243.808 256.431 243.683 256.92 243.683C257.293 243.683 257.599 243.746 257.839 243.873C258.082 243.997 258.275 244.147 258.419 244.323C258.563 244.497 258.672 244.661 258.746 244.815H258.829V243.766H260.307V250.214C260.307 250.757 260.178 251.206 259.918 251.561C259.659 251.916 259.304 252.182 258.854 252.358C258.404 252.534 257.893 252.623 257.322 252.623ZM257.334 248.847C257.652 248.847 257.922 248.77 258.146 248.616C258.369 248.461 258.539 248.24 258.655 247.95C258.771 247.661 258.829 247.314 258.829 246.909C258.829 246.51 258.771 246.16 258.655 245.86C258.542 245.56 258.374 245.327 258.15 245.162C257.929 244.994 257.657 244.91 257.334 244.91C257 244.91 256.721 244.997 256.498 245.17C256.274 245.344 256.106 245.582 255.992 245.885C255.879 246.185 255.823 246.527 255.823 246.909C255.823 247.298 255.879 247.638 255.992 247.93C256.108 248.219 256.278 248.445 256.502 248.607C256.728 248.767 257.006 248.847 257.334 248.847Z" fill="white"/>
<path d="M263.674 250.239C263.271 250.239 262.908 250.167 262.585 250.024C262.265 249.878 262.011 249.663 261.823 249.38C261.638 249.096 261.546 248.746 261.546 248.33C261.546 247.972 261.612 247.676 261.744 247.442C261.877 247.208 262.058 247.021 262.287 246.881C262.516 246.74 262.774 246.634 263.061 246.562C263.351 246.488 263.651 246.434 263.96 246.401C264.333 246.363 264.635 246.328 264.867 246.298C265.099 246.265 265.267 246.215 265.372 246.149C265.48 246.08 265.533 245.974 265.533 245.831V245.806C265.533 245.495 265.441 245.254 265.256 245.084C265.071 244.913 264.805 244.827 264.457 244.827C264.09 244.827 263.798 244.907 263.583 245.067C263.37 245.227 263.227 245.415 263.152 245.633L261.753 245.435C261.863 245.049 262.045 244.727 262.299 244.468C262.553 244.206 262.864 244.011 263.231 243.881C263.598 243.749 264.004 243.683 264.448 243.683C264.755 243.683 265.06 243.719 265.364 243.791C265.667 243.862 265.945 243.981 266.196 244.146C266.447 244.308 266.649 244.53 266.801 244.811C266.955 245.092 267.032 245.443 267.032 245.864V250.111H265.591V249.239H265.542C265.451 249.416 265.322 249.581 265.157 249.735C264.994 249.887 264.788 250.009 264.54 250.103C264.294 250.194 264.005 250.239 263.674 250.239ZM264.063 249.14C264.364 249.14 264.625 249.081 264.846 248.963C265.067 248.841 265.237 248.682 265.355 248.483C265.477 248.285 265.538 248.069 265.538 247.835V247.087C265.491 247.126 265.411 247.161 265.297 247.194C265.187 247.228 265.063 247.256 264.925 247.281C264.787 247.306 264.65 247.328 264.515 247.347C264.379 247.367 264.262 247.383 264.163 247.397C263.939 247.427 263.739 247.477 263.562 247.546C263.386 247.614 263.246 247.711 263.144 247.835C263.042 247.956 262.991 248.113 262.991 248.306C262.991 248.581 263.092 248.789 263.293 248.929C263.495 249.07 263.751 249.14 264.063 249.14Z" fill="white"/>
<path d="M270.9 250.223C270.401 250.223 269.953 250.094 269.559 249.838C269.164 249.582 268.852 249.21 268.623 248.723C268.394 248.235 268.279 247.643 268.279 246.947C268.279 246.242 268.395 245.647 268.627 245.162C268.861 244.675 269.178 244.307 269.575 244.059C269.973 243.808 270.416 243.683 270.904 243.683C271.277 243.683 271.584 243.746 271.824 243.873C272.064 243.997 272.254 244.147 272.395 244.323C272.536 244.497 272.645 244.661 272.722 244.815H272.784V241.651H274.288V250.111H272.813V249.111H272.722C272.645 249.265 272.533 249.429 272.387 249.603C272.241 249.774 272.047 249.92 271.807 250.041C271.567 250.162 271.265 250.223 270.9 250.223ZM271.318 248.996C271.636 248.996 271.907 248.91 272.13 248.739C272.354 248.566 272.524 248.325 272.639 248.017C272.755 247.708 272.813 247.349 272.813 246.938C272.813 246.528 272.755 246.171 272.639 245.868C272.526 245.565 272.358 245.33 272.134 245.162C271.913 244.994 271.642 244.91 271.318 244.91C270.984 244.91 270.706 244.997 270.482 245.17C270.258 245.344 270.09 245.583 269.977 245.889C269.864 246.195 269.807 246.545 269.807 246.938C269.807 247.335 269.864 247.689 269.977 248C270.093 248.308 270.263 248.552 270.486 248.731C270.713 248.907 270.99 248.996 271.318 248.996Z" fill="white"/>
<path d="M277.715 250.239C277.312 250.239 276.949 250.167 276.626 250.024C276.306 249.878 276.052 249.663 275.864 249.38C275.679 249.096 275.587 248.746 275.587 248.33C275.587 247.972 275.653 247.676 275.786 247.442C275.918 247.208 276.099 247.021 276.328 246.881C276.557 246.74 276.815 246.634 277.103 246.562C277.392 246.488 277.692 246.434 278.001 246.401C278.374 246.363 278.676 246.328 278.908 246.298C279.14 246.265 279.308 246.215 279.413 246.149C279.521 246.08 279.575 245.974 279.575 245.831V245.806C279.575 245.495 279.482 245.254 279.297 245.084C279.112 244.913 278.846 244.827 278.498 244.827C278.131 244.827 277.84 244.907 277.624 245.067C277.412 245.227 277.268 245.415 277.194 245.633L275.794 245.435C275.904 245.049 276.087 244.727 276.341 244.468C276.595 244.206 276.905 244.011 277.272 243.881C277.639 243.749 278.045 243.683 278.49 243.683C278.796 243.683 279.101 243.719 279.405 243.791C279.709 243.862 279.986 243.981 280.237 244.146C280.489 244.308 280.69 244.53 280.842 244.811C280.997 245.092 281.074 245.443 281.074 245.864V250.111H279.633V249.239H279.583C279.492 249.416 279.364 249.581 279.198 249.735C279.035 249.887 278.829 250.009 278.581 250.103C278.335 250.194 278.047 250.239 277.715 250.239ZM278.105 249.14C278.406 249.14 278.666 249.081 278.887 248.963C279.108 248.841 279.278 248.682 279.397 248.483C279.518 248.285 279.579 248.069 279.579 247.835V247.087C279.532 247.126 279.452 247.161 279.339 247.194C279.228 247.228 279.104 247.256 278.966 247.281C278.828 247.306 278.691 247.328 278.556 247.347C278.421 247.367 278.303 247.383 278.204 247.397C277.98 247.427 277.78 247.477 277.604 247.546C277.427 247.614 277.288 247.711 277.185 247.835C277.083 247.956 277.032 248.113 277.032 248.306C277.032 248.581 277.133 248.789 277.334 248.929C277.536 249.07 277.793 249.14 278.105 249.14Z" fill="white"/>
<path d="M228.472 233.753H289.693V258.471H228.472V233.753Z" stroke="white" stroke-width="0.728829"/>
<rect x="258.717" y="258.836" width="0.728829" height="16.7224" fill="white"/>
<path d="M257.988 275.214L260.175 274.999V289.607L257.988 289.821V275.214Z" fill="#4477BB"/>
<path d="M236.931 277.285L245.526 276.429L240.341 284.252L246.974 290.899L238.378 291.754L231.745 285.108L236.931 277.285Z" fill="#4477BB"/>
<path d="M221.625 278.739L230.221 277.884L225.035 285.706L231.668 292.353L223.073 293.209L216.44 286.562L221.625 278.739Z" fill="#4477BB"/>
<path d="M207.852 279.968L216.447 279.113L211.261 286.936L217.894 293.582L209.299 294.438L202.666 287.791L207.852 279.968Z" fill="#4477BB"/>
<rect x="581.224" y="265.744" width="64.1369" height="24.7183" stroke="white" stroke-width="0.728829"/>
<path d="M596.242 276.496H594.693C594.649 276.242 594.568 276.018 594.449 275.822C594.33 275.624 594.183 275.456 594.006 275.318C593.829 275.181 593.628 275.077 593.401 275.008C593.178 274.937 592.936 274.901 592.677 274.901C592.216 274.901 591.807 275.017 591.451 275.248C591.095 275.477 590.816 275.813 590.614 276.256C590.413 276.697 590.312 277.235 590.312 277.871C590.312 278.518 590.413 279.064 590.614 279.507C590.819 279.948 591.098 280.281 591.451 280.507C591.807 280.73 592.214 280.841 592.673 280.841C592.927 280.841 593.164 280.808 593.385 280.742C593.608 280.673 593.809 280.573 593.985 280.441C594.165 280.309 594.315 280.146 594.437 279.953C594.561 279.76 594.647 279.54 594.693 279.292L596.242 279.301C596.184 279.703 596.059 280.08 595.865 280.432C595.675 280.785 595.425 281.096 595.116 281.366C594.807 281.633 594.445 281.843 594.031 281.994C593.617 282.143 593.157 282.217 592.652 282.217C591.907 282.217 591.241 282.045 590.656 281.701C590.071 281.356 589.61 280.859 589.273 280.209C588.936 279.559 588.768 278.78 588.768 277.871C588.768 276.96 588.937 276.18 589.277 275.533C589.616 274.883 590.079 274.386 590.664 274.042C591.249 273.698 591.912 273.525 592.652 273.525C593.124 273.525 593.563 273.591 593.969 273.724C594.375 273.856 594.736 274.05 595.054 274.306C595.371 274.56 595.632 274.871 595.836 275.24C596.043 275.606 596.179 276.025 596.242 276.496Z" fill="white"/>
<path d="M599.082 278.383V282.101H597.583V273.641H599.049V276.834H599.123C599.272 276.476 599.503 276.194 599.815 275.987C600.13 275.778 600.53 275.674 601.016 275.674C601.458 275.674 601.843 275.766 602.171 275.95C602.5 276.135 602.754 276.405 602.933 276.76C603.115 277.115 603.206 277.549 603.206 278.061V282.101H601.707V278.293C601.707 277.866 601.597 277.534 601.376 277.297C601.158 277.057 600.852 276.938 600.457 276.938C600.192 276.938 599.954 276.995 599.745 277.111C599.537 277.224 599.375 277.388 599.256 277.603C599.14 277.818 599.082 278.078 599.082 278.383Z" fill="white"/>
<path d="M607.55 282.225C606.913 282.225 606.362 282.093 605.898 281.829C605.437 281.562 605.082 281.184 604.834 280.697C604.585 280.207 604.461 279.63 604.461 278.966C604.461 278.313 604.585 277.74 604.834 277.247C605.085 276.752 605.436 276.366 605.886 276.091C606.336 275.813 606.864 275.674 607.472 275.674C607.864 275.674 608.234 275.737 608.582 275.864C608.932 275.987 609.241 276.18 609.509 276.442C609.78 276.704 609.992 277.037 610.147 277.442C610.302 277.844 610.379 278.323 610.379 278.879V279.338H605.165V278.33H608.942C608.939 278.043 608.877 277.789 608.755 277.566C608.634 277.34 608.464 277.162 608.246 277.033C608.031 276.903 607.78 276.838 607.492 276.838C607.186 276.838 606.917 276.913 606.685 277.062C606.453 277.208 606.272 277.4 606.142 277.64C606.015 277.877 605.951 278.137 605.948 278.421V279.301C605.948 279.67 606.015 279.986 606.151 280.251C606.286 280.512 606.475 280.713 606.718 280.854C606.961 280.992 607.245 281.06 607.571 281.06C607.789 281.06 607.987 281.03 608.163 280.969C608.34 280.906 608.493 280.814 608.623 280.693C608.753 280.572 608.851 280.421 608.917 280.242L610.317 280.399C610.228 280.768 610.06 281.091 609.811 281.366C609.566 281.639 609.251 281.851 608.867 282.002C608.484 282.151 608.045 282.225 607.55 282.225Z" fill="white"/>
<path d="M614.413 284.613C613.875 284.613 613.412 284.54 613.026 284.394C612.639 284.251 612.329 284.058 612.094 283.816C611.86 283.573 611.697 283.305 611.606 283.01L612.956 282.684C613.016 282.808 613.105 282.93 613.221 283.052C613.337 283.175 613.493 283.277 613.689 283.357C613.887 283.44 614.137 283.481 614.438 283.481C614.863 283.481 615.215 283.378 615.494 283.171C615.773 282.968 615.912 282.632 615.912 282.163V280.961H615.838C615.76 281.115 615.647 281.274 615.498 281.436C615.352 281.599 615.157 281.735 614.914 281.845C614.674 281.955 614.372 282.011 614.007 282.011C613.519 282.011 613.076 281.896 612.678 281.668C612.283 281.436 611.969 281.092 611.734 280.635C611.502 280.175 611.386 279.599 611.386 278.908C611.386 278.211 611.502 277.623 611.734 277.144C611.969 276.662 612.285 276.297 612.682 276.049C613.08 275.799 613.523 275.674 614.012 275.674C614.384 275.674 614.691 275.737 614.931 275.864C615.174 275.987 615.367 276.138 615.511 276.314C615.654 276.487 615.763 276.651 615.838 276.805H615.921V275.756H617.399V282.205C617.399 282.747 617.269 283.196 617.01 283.551C616.75 283.907 616.395 284.172 615.945 284.349C615.495 284.525 614.985 284.613 614.413 284.613ZM614.426 280.837C614.743 280.837 615.014 280.76 615.237 280.606C615.461 280.452 615.631 280.23 615.747 279.941C615.863 279.652 615.921 279.305 615.921 278.9C615.921 278.501 615.863 278.151 615.747 277.851C615.633 277.55 615.465 277.318 615.241 277.152C615.021 276.984 614.749 276.9 614.426 276.9C614.092 276.9 613.813 276.987 613.589 277.161C613.366 277.334 613.197 277.572 613.084 277.875C612.971 278.176 612.914 278.517 612.914 278.9C612.914 279.288 612.971 279.628 613.084 279.92C613.2 280.209 613.37 280.435 613.593 280.598C613.82 280.757 614.097 280.837 614.426 280.837Z" fill="white"/>
<path d="M620.766 282.229C620.363 282.229 620 282.158 619.677 282.015C619.356 281.869 619.102 281.654 618.915 281.37C618.73 281.087 618.637 280.737 618.637 280.321C618.637 279.963 618.703 279.667 618.836 279.433C618.968 279.199 619.149 279.011 619.378 278.871C619.608 278.73 619.866 278.624 620.153 278.553C620.443 278.478 620.742 278.425 621.051 278.392C621.424 278.353 621.726 278.319 621.958 278.288C622.19 278.255 622.359 278.206 622.463 278.14C622.571 278.071 622.625 277.965 622.625 277.822V277.797C622.625 277.486 622.533 277.245 622.348 277.074C622.163 276.903 621.896 276.818 621.548 276.818C621.181 276.818 620.89 276.898 620.675 277.057C620.462 277.217 620.318 277.406 620.244 277.623L618.844 277.425C618.955 277.04 619.137 276.717 619.391 276.458C619.645 276.197 619.955 276.001 620.323 275.872C620.69 275.74 621.096 275.674 621.54 275.674C621.846 275.674 622.152 275.709 622.455 275.781C622.759 275.853 623.036 275.971 623.288 276.136C623.539 276.299 623.74 276.52 623.892 276.801C624.047 277.082 624.124 277.433 624.124 277.855V282.101H622.683V281.23H622.633C622.542 281.406 622.414 281.571 622.248 281.725C622.085 281.877 621.88 281.999 621.631 282.093C621.385 282.184 621.097 282.229 620.766 282.229ZM621.155 281.131C621.456 281.131 621.717 281.071 621.938 280.953C622.158 280.832 622.328 280.672 622.447 280.474C622.568 280.275 622.629 280.059 622.629 279.825V279.077C622.582 279.116 622.502 279.152 622.389 279.185C622.279 279.218 622.154 279.247 622.016 279.272C621.878 279.296 621.742 279.318 621.606 279.338C621.471 279.357 621.354 279.374 621.254 279.387C621.031 279.418 620.831 279.467 620.654 279.536C620.477 279.605 620.338 279.701 620.236 279.825C620.133 279.946 620.082 280.103 620.082 280.296C620.082 280.572 620.183 280.779 620.385 280.92C620.586 281.06 620.843 281.131 621.155 281.131Z" fill="white"/>
<path d="M627.992 282.213C627.492 282.213 627.045 282.085 626.65 281.829C626.255 281.573 625.943 281.201 625.714 280.713C625.485 280.226 625.371 279.634 625.371 278.937C625.371 278.232 625.486 277.637 625.718 277.152C625.953 276.665 626.269 276.297 626.667 276.049C627.064 275.799 627.507 275.674 627.996 275.674C628.369 275.674 628.675 275.737 628.915 275.864C629.155 275.987 629.346 276.138 629.487 276.314C629.628 276.487 629.737 276.651 629.814 276.805H629.876V273.641H631.379V282.101H629.905V281.102H629.814C629.737 281.256 629.625 281.42 629.478 281.593C629.332 281.764 629.139 281.91 628.899 282.031C628.659 282.152 628.356 282.213 627.992 282.213ZM628.41 280.986C628.728 280.986 628.998 280.901 629.222 280.73C629.445 280.556 629.615 280.315 629.731 280.007C629.847 279.699 629.905 279.339 629.905 278.929C629.905 278.518 629.847 278.162 629.731 277.859C629.618 277.556 629.449 277.32 629.226 277.152C629.005 276.984 628.733 276.9 628.41 276.9C628.076 276.9 627.797 276.987 627.574 277.161C627.35 277.334 627.182 277.574 627.068 277.879C626.955 278.185 626.899 278.535 626.899 278.929C626.899 279.325 626.955 279.679 627.068 279.99C627.184 280.299 627.354 280.543 627.578 280.722C627.804 280.898 628.082 280.986 628.41 280.986Z" fill="white"/>
<path d="M634.807 282.229C634.404 282.229 634.041 282.158 633.718 282.015C633.398 281.869 633.144 281.654 632.956 281.37C632.771 281.087 632.678 280.737 632.678 280.321C632.678 279.963 632.745 279.667 632.877 279.433C633.01 279.199 633.191 279.011 633.42 278.871C633.649 278.73 633.907 278.624 634.194 278.553C634.484 278.478 634.784 278.425 635.093 278.392C635.465 278.353 635.768 278.319 636 278.288C636.232 278.255 636.4 278.206 636.505 278.14C636.612 278.071 636.666 277.965 636.666 277.822V277.797C636.666 277.486 636.574 277.245 636.389 277.074C636.204 276.903 635.937 276.818 635.59 276.818C635.222 276.818 634.931 276.898 634.716 277.057C634.503 277.217 634.36 277.406 634.285 277.623L632.886 277.425C632.996 277.04 633.178 276.717 633.432 276.458C633.686 276.197 633.997 276.001 634.364 275.872C634.731 275.74 635.137 275.674 635.581 275.674C635.888 275.674 636.193 275.709 636.497 275.781C636.8 275.853 637.078 275.971 637.329 276.136C637.58 276.299 637.782 276.52 637.933 276.801C638.088 277.082 638.165 277.433 638.165 277.855V282.101H636.724V281.23H636.675C636.584 281.406 636.455 281.571 636.289 281.725C636.127 281.877 635.921 281.999 635.672 282.093C635.427 282.184 635.138 282.229 634.807 282.229ZM635.196 281.131C635.497 281.131 635.758 281.071 635.979 280.953C636.2 280.832 636.37 280.672 636.488 280.474C636.61 280.275 636.67 280.059 636.67 279.825V279.077C636.624 279.116 636.543 279.152 636.43 279.185C636.32 279.218 636.196 279.247 636.058 279.272C635.92 279.296 635.783 279.318 635.648 279.338C635.512 279.357 635.395 279.374 635.296 279.387C635.072 279.418 634.872 279.467 634.695 279.536C634.518 279.605 634.379 279.701 634.277 279.825C634.175 279.946 634.124 280.103 634.124 280.296C634.124 280.572 634.224 280.779 634.426 280.92C634.628 281.06 634.884 281.131 635.196 281.131Z" fill="white"/>
<rect x="615.113" y="250.838" width="0.728829" height="14.5412" fill="white"/>
<path d="M630.782 160.32H713.869V185.765H630.782V160.32Z" stroke="white" stroke-width="0.728829"/>
<path d="M650.934 177.405V168.944H654.114C654.765 168.944 655.312 169.066 655.754 169.308C656.198 169.55 656.534 169.883 656.76 170.308C656.989 170.729 657.104 171.208 657.104 171.745C657.104 172.288 656.989 172.77 656.76 173.191C656.531 173.612 656.193 173.944 655.746 174.187C655.298 174.426 654.748 174.546 654.093 174.546H651.985V173.286H653.886C654.267 173.286 654.579 173.22 654.822 173.088C655.065 172.956 655.244 172.774 655.36 172.542C655.479 172.311 655.538 172.045 655.538 171.745C655.538 171.445 655.479 171.181 655.36 170.952C655.244 170.723 655.064 170.546 654.818 170.419C654.575 170.29 654.262 170.225 653.878 170.225H652.47V177.405H650.934Z" fill="white"/>
<path d="M658.372 177.405V171.059H659.871V177.405H658.372ZM659.126 170.159C658.888 170.159 658.684 170.08 658.513 169.923C658.342 169.764 658.256 169.572 658.256 169.349C658.256 169.123 658.342 168.932 658.513 168.775C658.684 168.615 658.888 168.535 659.126 168.535C659.366 168.535 659.57 168.615 659.739 168.775C659.91 168.932 659.995 169.123 659.995 169.349C659.995 169.572 659.91 169.764 659.739 169.923C659.57 170.08 659.366 170.159 659.126 170.159Z" fill="white"/>
<path d="M664.589 171.059V172.216H660.932V171.059H664.589ZM661.835 169.539H663.334V175.496C663.334 175.697 663.364 175.851 663.425 175.959C663.489 176.063 663.571 176.135 663.674 176.174C663.776 176.212 663.889 176.231 664.013 176.231C664.107 176.231 664.193 176.225 664.27 176.211C664.35 176.197 664.411 176.185 664.452 176.174L664.705 177.343C664.625 177.37 664.51 177.401 664.361 177.434C664.215 177.467 664.035 177.486 663.823 177.491C663.447 177.502 663.109 177.446 662.808 177.322C662.507 177.195 662.268 177 662.092 176.735C661.918 176.471 661.832 176.141 661.835 175.744V169.539Z" fill="white"/>
<path d="M668.801 177.405V168.944H670.338V176.12H674.073V177.405H668.801Z" fill="white"/>
<path d="M677.17 177.533C676.767 177.533 676.404 177.461 676.081 177.318C675.761 177.172 675.507 176.957 675.319 176.674C675.134 176.39 675.042 176.04 675.042 175.624C675.042 175.266 675.108 174.97 675.241 174.736C675.373 174.502 675.554 174.315 675.783 174.174C676.012 174.034 676.27 173.928 676.558 173.856C676.847 173.782 677.147 173.728 677.456 173.695C677.829 173.656 678.131 173.622 678.363 173.592C678.595 173.559 678.763 173.509 678.868 173.443C678.976 173.374 679.03 173.268 679.03 173.125V173.1C679.03 172.789 678.937 172.548 678.752 172.377C678.567 172.207 678.301 172.121 677.953 172.121C677.586 172.121 677.295 172.201 677.079 172.361C676.867 172.52 676.723 172.709 676.649 172.927L675.249 172.728C675.359 172.343 675.542 172.021 675.796 171.762C676.05 171.5 676.36 171.305 676.727 171.175C677.094 171.043 677.5 170.977 677.945 170.977C678.251 170.977 678.556 171.013 678.86 171.084C679.164 171.156 679.441 171.274 679.692 171.44C679.944 171.602 680.145 171.824 680.297 172.105C680.451 172.386 680.529 172.737 680.529 173.158V177.405H679.088V176.533H679.038C678.947 176.709 678.819 176.875 678.653 177.029C678.49 177.18 678.284 177.303 678.036 177.396C677.79 177.487 677.502 177.533 677.17 177.533ZM677.56 176.434C677.861 176.434 678.121 176.375 678.342 176.256C678.563 176.135 678.733 175.975 678.852 175.777C678.973 175.579 679.034 175.363 679.034 175.129V174.381C678.987 174.419 678.907 174.455 678.794 174.488C678.683 174.521 678.559 174.55 678.421 174.575C678.283 174.6 678.146 174.622 678.011 174.641C677.876 174.66 677.758 174.677 677.659 174.691C677.435 174.721 677.235 174.77 677.059 174.839C676.882 174.908 676.742 175.005 676.64 175.129C676.538 175.25 676.487 175.407 676.487 175.599C676.487 175.875 676.588 176.083 676.789 176.223C676.991 176.364 677.248 176.434 677.56 176.434Z" fill="white"/>
<path d="M683.535 173.687V177.405H682.036V171.059H683.469V172.138H683.543C683.69 171.782 683.923 171.5 684.243 171.291C684.566 171.081 684.965 170.977 685.44 170.977C685.879 170.977 686.261 171.07 686.587 171.258C686.916 171.445 687.17 171.716 687.349 172.072C687.531 172.427 687.621 172.858 687.618 173.365V177.405H686.119V173.596C686.119 173.172 686.009 172.84 685.788 172.6C685.57 172.361 685.268 172.241 684.881 172.241C684.619 172.241 684.386 172.299 684.181 172.414C683.98 172.527 683.821 172.691 683.705 172.906C683.592 173.121 683.535 173.381 683.535 173.687Z" fill="white"/>
<path d="M691.958 177.529C691.32 177.529 690.77 177.396 690.306 177.132C689.845 176.865 689.49 176.488 689.242 176C688.993 175.51 688.869 174.933 688.869 174.269C688.869 173.617 688.993 173.044 689.242 172.551C689.493 172.055 689.843 171.669 690.293 171.394C690.743 171.116 691.272 170.977 691.879 170.977C692.271 170.977 692.641 171.04 692.989 171.167C693.34 171.291 693.649 171.484 693.917 171.745C694.187 172.007 694.4 172.34 694.555 172.745C694.709 173.147 694.787 173.626 694.787 174.183V174.641H689.573V173.633H693.35C693.347 173.347 693.285 173.092 693.163 172.869C693.042 172.643 692.872 172.465 692.654 172.336C692.439 172.207 692.187 172.142 691.9 172.142C691.594 172.142 691.325 172.216 691.093 172.365C690.861 172.511 690.68 172.704 690.55 172.943C690.423 173.18 690.358 173.44 690.356 173.724V174.604C690.356 174.973 690.423 175.29 690.558 175.554C690.694 175.816 690.883 176.017 691.126 176.157C691.369 176.295 691.653 176.364 691.979 176.364C692.197 176.364 692.394 176.333 692.571 176.273C692.748 176.209 692.901 176.117 693.031 175.996C693.16 175.875 693.258 175.725 693.325 175.546L694.724 175.703C694.636 176.072 694.468 176.394 694.219 176.669C693.973 176.942 693.659 177.154 693.275 177.306C692.891 177.454 692.452 177.529 691.958 177.529Z" fill="white"/>
<path d="M671.961 186.129H672.69V199.216H671.961V186.129Z" fill="white"/>
<path fill-rule="evenodd" clip-rule="evenodd" d="M274.751 282.101H271.836V286.464H274.751V285.737H272.565V282.828H274.751V282.101Z" fill="#4477BB"/>
<path fill-rule="evenodd" clip-rule="evenodd" d="M280.582 274.831H277.667V279.193H280.582V278.466H278.395V275.558H280.582V274.831Z" fill="#4477BB"/>
<path fill-rule="evenodd" clip-rule="evenodd" d="M287.141 279.92H284.226V284.282H287.141V283.555H284.955V280.647H287.141V279.92Z" fill="#4477BB"/>
<path fill-rule="evenodd" clip-rule="evenodd" d="M292.972 274.104H290.057V278.466H292.972V277.739H290.785V274.831H292.972V274.104Z" fill="#4477BB"/>
<path fill-rule="evenodd" clip-rule="evenodd" d="M299.531 279.193H296.616V283.555H299.531V282.828H297.345V279.92H299.531V279.193Z" fill="#4477BB"/>
<path fill-rule="evenodd" clip-rule="evenodd" d="M305.362 273.377H302.447V277.739H305.362V277.012H303.176V274.104H305.362V273.377Z" fill="#4477BB"/>
<path fill-rule="evenodd" clip-rule="evenodd" d="M311.922 278.466H309.006V282.828H311.922V282.101H309.735V279.193H311.922V278.466Z" fill="#4477BB"/>
<path fill-rule="evenodd" clip-rule="evenodd" d="M317.752 272.65H314.837V277.012H317.752V276.285H315.566V273.377H317.752V272.65Z" fill="#4477BB"/>
<path fill-rule="evenodd" clip-rule="evenodd" d="M323.583 277.739H320.667V282.101H323.583V281.374H321.396V278.466H323.583V277.739Z" fill="#4477BB"/>
<path fill-rule="evenodd" clip-rule="evenodd" d="M330.142 270.468H327.227V274.831H330.142V274.104H327.956V271.195H330.142V270.468Z" fill="#4477BB"/>
<path fill-rule="evenodd" clip-rule="evenodd" d="M335.973 275.558H333.058V279.92H335.973V279.193H333.786V276.285H335.973V275.558Z" fill="#4477BB"/>
<path fill-rule="evenodd" clip-rule="evenodd" d="M342.532 269.014H339.617V273.377H342.532V272.65H340.346V269.741H342.532V269.014Z" fill="#4477BB"/>
<path fill-rule="evenodd" clip-rule="evenodd" d="M347.634 274.831H344.719V279.193H347.634V278.466H345.448V275.558H347.634V274.831Z" fill="#4477BB"/>
<path fill-rule="evenodd" clip-rule="evenodd" d="M354.922 268.287H352.007V272.65H354.922V271.922H352.736V269.014H354.922V268.287Z" fill="#4477BB"/>
<path fill-rule="evenodd" clip-rule="evenodd" d="M360.024 274.104H357.109V278.466H360.024V277.739H357.838V274.831H360.024V274.104Z" fill="#4477BB"/>
<path fill-rule="evenodd" clip-rule="evenodd" d="M367.312 266.833H364.397V271.195H367.312V270.468H365.126V267.56H367.312V266.833Z" fill="#4477BB"/>
<path fill-rule="evenodd" clip-rule="evenodd" d="M372.414 272.65H369.499V277.012H372.414V276.285H370.228V273.377H372.414V272.65Z" fill="#4477BB"/>
<path fill-rule="evenodd" clip-rule="evenodd" d="M379.703 265.379H376.787V269.741H379.703V269.014H377.516V266.106H379.703V265.379Z" fill="#4477BB"/>
<path fill-rule="evenodd" clip-rule="evenodd" d="M384.804 271.195H381.889V275.558H384.804V274.831H382.618V271.922H384.804V271.195Z" fill="#4477BB"/>
<path fill-rule="evenodd" clip-rule="evenodd" d="M392.093 263.198H389.177V267.56H392.093V266.833H389.906V263.925H392.093V263.198Z" fill="#4477BB"/>
<path fill-rule="evenodd" clip-rule="evenodd" d="M397.194 269.741H394.279V274.104H397.194V273.377H395.008V270.468H397.194V269.741Z" fill="#4477BB"/>
<path fill-rule="evenodd" clip-rule="evenodd" d="M404.483 262.471H401.567V266.833H404.483V266.106H402.296V263.198H404.483V262.471Z" fill="#4477BB"/>
</svg>
